<?xml version="1.0" encoding="UTF-8" standalone="no" ?>
<!DOCTYPE sesx>
<sesx version="1.9">

  <session appBuild="24.0.0.46" appVersion="24.0" audioChannelType="stereo" bitDepth="32" duration="19082508" sampleRate="48000">
    <tracks>
      <audioTrack automationLaneOpenState="false" id="10001" index="1" select="false" visible="true">
        <trackParameters trackHeight="87" trackHue="160" trackMinimized="false">
          <name>轨道 1</name>
        </trackParameters>
        <trackAudioParameters audioChannelType="stereo" automationMode="1" monitoring="false" recordArmed="false" solo="false" soloSafe="false">
          <trackOutput outputID="10000" type="trackID"/>
          <trackInput inputID="1"/>
          <component componentGuid="107a4dd1-3a0b-499d-b3c7-435f6bf641ab" componentID="Audition.Fader" id="trackFader" name="volume" powered="true">
            <parameter index="0" name="volume" parameterValue="1"/>
            <parameter index="1" name="static gain" parameterValue="1"/>
          </component>
          <component componentGuid="35dd761a-0a2b-42b3-9705-35392975ac8e" componentID="Audition.Mute" id="trackMute" name="Mute" powered="true">
            <parameter index="0" parameterValue="0"/>
            <parameter index="1" name="mute" parameterValue="0"/>
          </component>
          <component componentGuid="071ec322-fa18-404a-ac6f-ba6d2107e7fc" componentID="Audition.StereoPanner" id="trackPan" name="StereoPanner" powered="true">
            <parameter index="0" name="声像" parameterValue="0"/>
          </component>
          <component componentGuid="e12f3f64-1354-438b-9a33-7a53a5c093c4" componentID="Audition.EQ" id="trackEQ" name="EQ" powered="false">
            <parameter index="0" name="下限频率" parameterValue="0.000834028352983295917510986328125"/>
            <parameter index="1" name="下限增益" parameterValue="0.5"/>
            <parameter index="2" name="上限频率" parameterValue="0.74979150295257568359375"/>
            <parameter index="3" name="上限频率增益" parameterValue="0.5"/>
            <parameter index="4" name="EQ 频段 1 中置频率" parameterValue="0.00125104258768260478973388671875"/>
            <parameter index="5" name="EQ 频段 1 Q" parameterValue="0.000199989997781813144683837890625"/>
            <parameter index="6" name="EQ 频段 1 增益" parameterValue="0.5"/>
            <parameter index="7" name="EQ 频段 1 启用" parameterValue="1"/>
            <parameter index="8" name="EQ 频段 2 中置频率" parameterValue="0.0075062550604343414306640625"/>
            <parameter index="9" name="EQ 频段 2 Q" parameterValue="0.000199989997781813144683837890625"/>
            <parameter index="10" name="EQ 频段 2 增益" parameterValue="0.5"/>
            <parameter index="11" name="EQ 频段 2 启用" parameterValue="1"/>
            <parameter index="12" name="EQ 频段 3 中置频率" parameterValue="0.0325271077454090118408203125"/>
            <parameter index="13" name="EQ 频段 3 Q" parameterValue="0.000199989997781813144683837890625"/>
            <parameter index="14" name="EQ 频段 3 增益" parameterValue="0.5"/>
            <parameter index="15" name="EQ 频段 3 启用" parameterValue="1"/>
            <parameter index="16" name="EQ 频段 4 中置频率" parameterValue="0.13261051476001739501953125"/>
            <parameter index="17" name="EQ 频段 4 Q" parameterValue="0.000199989997781813144683837890625"/>
            <parameter index="18" name="EQ 频段 4 增益" parameterValue="0.5"/>
            <parameter index="19" name="EQ 频段 4 启用" parameterValue="1"/>
            <parameter index="20" name="EQ 频段 5 中置频率" parameterValue="0.532944142818450927734375"/>
            <parameter index="21" name="EQ 频段 5 Q" parameterValue="0.000199989997781813144683837890625"/>
            <parameter index="22" name="EQ 频段 5 增益" parameterValue="0.5"/>
            <parameter index="23" name="EQ 频段 5 启用" parameterValue="1"/>
            <parameter index="24" name="增益" parameterValue="0.666666686534881591796875"/>
            <parameter index="25" name="恒定 Q" parameterValue="1"/>
            <parameter index="26" name="下限滤镜顺序" parameterValue="0"/>
            <parameter index="27" name="上限频率滤镜顺序" parameterValue="0"/>
            <parameter index="28" name="超静音模式" parameterValue="0"/>
            <parameter index="29" name="下限启用" parameterValue="1"/>
            <parameter index="30" name="上限频率启用" parameterValue="1"/>
            <parameter index="31" name="原始采样率" parameterValue="0.25"/>
            <parameter index="32" name="EQ 频段 1 频带宽" parameterValue="0.002499990165233612060546875"/>
            <parameter index="33" name="EQ 频段 2 频段宽度" parameterValue="0.0099999904632568359375"/>
            <parameter index="34" name="EQ 频段 3 频段宽度" parameterValue="0.0399999916553497314453125"/>
            <parameter index="35" name="EQ 频段 4 频段宽度" parameterValue="0.15999998152256011962890625"/>
            <parameter index="36" name="EQ 频段 5 频段宽度" parameterValue="0.63999998569488525390625"/>
            <parameter index="37" name="高通滤波启用" parameterValue="0"/>
            <parameter index="38" name="高通切除频率" parameterValue="0"/>
            <parameter index="39" name="高通斜率" parameterValue="0.4000000059604644775390625"/>
            <parameter index="40" name="低通滤波启用" parameterValue="0"/>
            <parameter index="41" name="低通切除频率" parameterValue="0.833194315433502197265625"/>
            <parameter index="42" name="低通斜率" parameterValue="0.4000000059604644775390625"/>
            <parameter index="43" name="不使用" parameterValue="0"/>
            <parameter index="44" name="下限图示范围" parameterValue="1"/>
          </component>
        </trackAudioParameters>
        <editParameter parameterIndex="0" slotIndex="4294967280"/>
        <audioClip clipAutoCrossfade="true" crossFadeHeadClipID="-1" crossFadeTailClipID="-1" endPoint="4056775" fileID="0" hue="-1" id="0" lockedInTime="false" looped="false" name="tmpd_dse66b 48000 2" offline="false" select="false" sourceInPoint="2292358" sourceOutPoint="4056775" startPoint="2292358" zOrder="3">
          <component componentGuid="b60587cd-b737-4bcc-a685-b0ef6dc4ab7a" componentID="Audition.Fader" id="clipGain" name="volume" powered="true">
            <parameter index="0" name="volume" parameterValue="1"/>
            <parameter index="1" name="static gain" parameterValue="1"/>
          </component>
          <component componentGuid="93c943b3-fcc3-4bed-8d0c-db757f43d571" componentID="Audition.Mute" id="clipMute" name="Mute" powered="true">
            <parameter index="0" parameterValue="0"/>
            <parameter index="1" name="mute" parameterValue="0"/>
          </component>
          <component componentGuid="ea7d7f12-9883-40ad-8661-7dd67df9042a" componentID="Audition.StereoPanner" id="clipPan" name="StereoPanner" powered="true">
            <parameter index="0" name="声像" parameterValue="0"/>
          </component>
          <fadeIn crossFadeLinkType="linkedAsymmetric" endPoint="0" shape="19" startPoint="0" type="log"/>
          <fadeOut crossFadeLinkType="linkedAsymmetric" endPoint="1764417" shape="19" startPoint="1764417" type="log"/>
          <editParameter parameterIndex="0" slotIndex="4294967280"/>
          <editParameter parameterIndex="0" slotIndex="4294967281"/>
          <channelMap>
            <channel index="0" sourceIndex="0"/>
          </channelMap>
        </audioClip>
        <audioClip clipAutoCrossfade="true" crossFadeHeadClipID="-1" crossFadeTailClipID="-1" endPoint="4712516" fileID="0" hue="-1" id="1" lockedInTime="false" looped="false" name="tmpd_dse66b 48000 2" offline="false" select="false" sourceInPoint="4056775" sourceOutPoint="4712516" startPoint="4056775" zOrder="13">
          <component componentGuid="acdc87cd-6e39-488b-8717-d29641df0daa" componentID="Audition.Fader" id="clipGain" name="volume" powered="true">
            <parameter index="0" name="volume" parameterValue="1"/>
            <parameter index="1" name="static gain" parameterValue="1"/>
          </component>
          <component componentGuid="ad83f921-ee41-4978-8d87-319dacda31b1" componentID="Audition.Mute" id="clipMute" name="Mute" powered="true">
            <parameter index="0" parameterValue="0"/>
            <parameter index="1" name="mute" parameterValue="0"/>
          </component>
          <component componentGuid="06c41d45-9d33-4e31-b724-8e842edd5895" componentID="Audition.StereoPanner" id="clipPan" name="StereoPanner" powered="true">
            <parameter index="0" name="声像" parameterValue="-20.5128326416015625"/>
          </component>
          <fadeIn crossFadeLinkType="linkedAsymmetric" endPoint="0" shape="19" startPoint="0" type="log"/>
          <fadeOut crossFadeLinkType="linkedAsymmetric" endPoint="655741" shape="19" startPoint="655741" type="log"/>
          <editParameter parameterIndex="0" slotIndex="4294967280"/>
          <editParameter parameterIndex="0" slotIndex="4294967281"/>
          <channelMap>
            <channel index="0" sourceIndex="0"/>
          </channelMap>
        </audioClip>
        <audioClip clipAutoCrossfade="true" crossFadeHeadClipID="-1" crossFadeTailClipID="3" endPoint="5353143" fileID="0" hue="-1" id="2" lockedInTime="false" looped="false" name="tmpd_dse66b 48000 2" offline="false" select="false" sourceInPoint="4712516" sourceOutPoint="5353143" startPoint="4712516" zOrder="3">
          <component componentGuid="063b4f82-bf91-4f0b-a204-210b5142cdd7" componentID="Audition.Fader" id="clipGain" name="volume" powered="true">
            <parameter index="0" name="volume" parameterValue="1"/>
            <parameter index="1" name="static gain" parameterValue="1"/>
          </component>
          <component componentGuid="682db0fa-a3f0-4a7f-a9a2-a44732381a32" componentID="Audition.Mute" id="clipMute" name="Mute" powered="true">
            <parameter index="0" parameterValue="0"/>
            <parameter index="1" name="mute" parameterValue="0"/>
          </component>
          <component componentGuid="c69331a1-cd3b-48e4-9d9b-76a1b4b3967e" componentID="Audition.StereoPanner" id="clipPan" name="StereoPanner" powered="true">
            <parameter index="0" name="声像" parameterValue="0"/>
          </component>
          <fadeIn crossFadeLinkType="linkedAsymmetric" endPoint="0" shape="19" startPoint="0" type="log"/>
          <fadeOut crossFadeLinkType="linkedAsymmetric" endPoint="640627" shape="19" startPoint="639235" type="log"/>
          <editParameter parameterIndex="0" slotIndex="4294967280"/>
          <editParameter parameterIndex="0" slotIndex="4294967281"/>
          <channelMap>
            <channel index="0" sourceIndex="0"/>
          </channelMap>
        </audioClip>
        <audioClip clipAutoCrossfade="true" crossFadeHeadClipID="2" crossFadeTailClipID="4" endPoint="6744271" fileID="1" hue="-1" id="3" lockedInTime="false" looped="false" name="64347069 48000 2" offline="false" select="false" sourceInPoint="5351751" sourceOutPoint="6744271" startPoint="5351751" zOrder="19">
          <effectsRack preFader="true">
            <component componentGuid="cd690cb3-2166-481b-ab82-c5a32b612b00" componentID="Audition.ComponentGroup" id="rackMix" powered="true">
              <parameter index="0" parameterValue="0"/>
              <parameter index="1" parameterValue="0"/>
            </component>
            <component componentGuid="1ddd4ddc-8a25-4375-b9db-44d5269c03ac" id="rackInput" powered="true">
              <parameter index="0" parameterValue="1"/>
              <parameter index="1" parameterValue="0"/>
            </component>
            <component componentGuid="23f6f95e-18a9-4bdf-8214-afc23bd7508f" id="rackOutput" powered="true">
              <parameter index="0" parameterValue="1"/>
              <parameter index="1" parameterValue="0"/>
            </component>
            <slot powered="true" slotIndex="0">
              <component componentGuid="a2973347-3c90-4de3-8ab4-bd5452ded50f" componentID="8edcd326-33de-4a4d-985b-f1bf48ed1427" name="参数均衡器" presetName="（自定义）">
                <busConfig><![CDATA[{"in":[{"layout":[100,101],"name":"","type":0}],"out":[{"layout":[100,101],"name":"","type":0}]}]]></busConfig>
                <parameter index="0" name="下限频率" parameterValue="0.000834028352983295917510986328125"/>
                <parameter index="1" name="下限增益" parameterValue="0.5"/>
                <parameter index="2" name="上限频率" parameterValue="0.74979150295257568359375"/>
                <parameter index="3" name="上限频率增益" parameterValue="0.5"/>
                <parameter index="4" name="EQ 频段 1 中置频率" parameterValue="0.00125104258768260478973388671875"/>
                <parameter index="5" name="EQ 频段 1 Q" parameterValue="0.000199989997781813144683837890625"/>
                <parameter index="6" name="EQ 频段 1 增益" parameterValue="0.5"/>
                <parameter index="7" name="EQ 频段 1 启用" parameterValue="1"/>
                <parameter index="8" name="EQ 频段 2 中置频率" parameterValue="0.0075062550604343414306640625"/>
                <parameter index="9" name="EQ 频段 2 Q" parameterValue="0.000199989997781813144683837890625"/>
                <parameter index="10" name="EQ 频段 2 增益" parameterValue="0.5"/>
                <parameter index="11" name="EQ 频段 2 启用" parameterValue="1"/>
                <parameter index="12" name="EQ 频段 3 中置频率" parameterValue="0.0325271077454090118408203125"/>
                <parameter index="13" name="EQ 频段 3 Q" parameterValue="0.000199989997781813144683837890625"/>
                <parameter index="14" name="EQ 频段 3 增益" parameterValue="0.5"/>
                <parameter index="15" name="EQ 频段 3 启用" parameterValue="1"/>
                <parameter index="16" name="EQ 频段 4 中置频率" parameterValue="0.13261051476001739501953125"/>
                <parameter index="17" name="EQ 频段 4 Q" parameterValue="0.000199989997781813144683837890625"/>
                <parameter index="18" name="EQ 频段 4 增益" parameterValue="0.5"/>
                <parameter index="19" name="EQ 频段 4 启用" parameterValue="1"/>
                <parameter index="20" name="EQ 频段 5 中置频率" parameterValue="0.53294408321380615234375"/>
                <parameter index="21" name="EQ 频段 5 Q" parameterValue="0.000199989997781813144683837890625"/>
                <parameter index="22" name="EQ 频段 5 增益" parameterValue="0.5"/>
                <parameter index="23" name="EQ 频段 5 启用" parameterValue="1"/>
                <parameter index="24" name="增益" parameterValue="0.666666686534881591796875"/>
                <parameter index="25" name="恒定 Q" parameterValue="1"/>
                <parameter index="26" name="下限滤镜顺序" parameterValue="0"/>
                <parameter index="27" name="上限频率滤镜顺序" parameterValue="0"/>
                <parameter index="28" name="超静音模式" parameterValue="0"/>
                <parameter index="29" name="下限启用" parameterValue="1"/>
                <parameter index="30" name="上限频率启用" parameterValue="1"/>
                <parameter index="31" name="原始采样率" parameterValue="0.25"/>
                <parameter index="32" name="EQ 频段 1 频带宽" parameterValue="0.002499990165233612060546875"/>
                <parameter index="33" name="EQ 频段 2 频段宽度" parameterValue="0.0099999904632568359375"/>
                <parameter index="34" name="EQ 频段 3 频段宽度" parameterValue="0.0399999953806400299072265625"/>
                <parameter index="35" name="EQ 频段 4 频段宽度" parameterValue="0.1599999964237213134765625"/>
                <parameter index="36" name="EQ 频段 5 频段宽度" parameterValue="0.639999926090240478515625"/>
                <parameter index="37" name="高通滤波启用" parameterValue="0"/>
                <parameter index="38" name="高通切除频率" parameterValue="0"/>
                <parameter index="39" name="高通斜率" parameterValue="0.4000000059604644775390625"/>
                <parameter index="40" name="低通滤波启用" parameterValue="0"/>
                <parameter index="41" name="低通切除频率" parameterValue="0.833194315433502197265625"/>
                <parameter index="42" name="低通斜率" parameterValue="0.4000000059604644775390625"/>
                <parameter index="43" name="不使用" parameterValue="0"/>
                <parameter index="44" name="下限图示范围" parameterValue="0"/>
              </component>
            </slot>
            <slot powered="true" slotIndex="1">
              <component componentGuid="e9e6bf3d-c8ce-42e8-8be3-09adbf381186" componentID="f76dad9c-77da-477a-9939-eefefc5c23bd" name="动态处理" presetName="（自定义）">
                <busConfig><![CDATA[{"in":[{"layout":[100,101],"name":"","type":0},{"layout":[100,101],"name":"侧链在","type":1}],"out":[{"layout":[100,101],"name":"","type":0}]}]]></busConfig>
                <channelMap direction="input">
                  <channel index="0" sourceIndex="0"/>
                  <channel index="1" sourceIndex="1"/>
                </channelMap>
                <parameter index="0" name="电平检测器 - 触发时间" parameterValue="0.048000000417232513427734375"/>
                <parameter index="1" name="电平检测器 - 释放时间" parameterValue="0.0500000007450580596923828125"/>
                <parameter index="2" name="增益处理器 - 触发时间" parameterValue="0.001000000047497451305389404296875"/>
                <parameter index="3" name="增益处理器 - 释放时间" parameterValue="0.1500000059604644775390625"/>
                <parameter index="4" name="预测时间" parameterValue="0.006000000052154064178466796875"/>
                <parameter index="5" name="输入增益" parameterValue="0.5"/>
                <parameter index="6" name="输出增益" parameterValue="0.5"/>
                <parameter index="7" name="低频切除" parameterValue="0"/>
                <parameter index="8" name="高频切除" parameterValue="1"/>
                <parameter index="9" name="锁定滤波" parameterValue="0"/>
                <parameter index="10" name="X/Y 配对数量" parameterValue="0.4285714328289031982421875"/>
                <parameter index="11" name="链接声道" parameterValue="0"/>
                <parameter index="12" name="峰值/RMS" parameterValue="1"/>
                <parameter index="13" name="只有包络" parameterValue="0"/>
                <parameter index="14" name="曲线" parameterValue="0"/>
                <parameter index="15" name="噪声门控制（如果扩展多于 50:1）" parameterValue="0"/>
                <parameter index="16" name="当前标签" parameterValue="0"/>
                <parameter index="17" name="Location1" parameterValue="0"/>
                <parameter index="18" name="Value1" parameterValue="0"/>
                <parameter index="19" name="Location2" parameterValue="0.800000011920928955078125"/>
                <parameter index="20" name="Value2" parameterValue="0.800000011920928955078125"/>
                <parameter index="21" name="Location3" parameterValue="1"/>
                <parameter index="22" name="Value3" parameterValue="1"/>
                <parameter index="23" name="Location4" parameterValue="1"/>
                <parameter index="24" name="Value4" parameterValue="1"/>
                <parameter index="25" name="Location5" parameterValue="1"/>
                <parameter index="26" name="Value5" parameterValue="1"/>
                <parameter index="27" name="Location6" parameterValue="1"/>
                <parameter index="28" name="Value6" parameterValue="1"/>
                <parameter index="29" name="Location7" parameterValue="1"/>
                <parameter index="30" name="Value7" parameterValue="1"/>
                <parameter index="31" name="补充增益" parameterValue="0"/>
              </component>
            </slot>
          </effectsRack>
          <component componentGuid="04dd2d4e-fe43-4492-a181-a135451f5521" componentID="Audition.Fader" id="clipGain" name="volume" powered="true">
            <parameter index="0" name="volume" parameterValue="1"/>
            <parameter index="1" name="static gain" parameterValue="1"/>
          </component>
          <component componentGuid="91cd6aab-18ff-4eca-b843-2759c29154d0" componentID="Audition.Mute" id="clipMute" name="Mute" powered="true">
            <parameter index="0" parameterValue="0"/>
            <parameter index="1" name="mute" parameterValue="0"/>
          </component>
          <component componentGuid="c6872824-6013-49af-bc0c-e1543ef85bad" componentID="Audition.StereoPanner" id="clipPan" name="StereoPanner" powered="true">
            <parameter index="0" name="声像" parameterValue="0"/>
          </component>
          <fadeIn crossFadeLinkType="linkedAsymmetric" endPoint="1392" shape="18" startPoint="0" type="log"/>
          <fadeOut crossFadeLinkType="linkedAsymmetric" endPoint="1392520" shape="18" startPoint="1392" type="log"/>
          <editParameter parameterIndex="0" slotIndex="4294967281"/>
          <editParameter parameterIndex="0" slotIndex="4294967280"/>
          <channelMap>
            <channel index="0" sourceIndex="0"/>
            <channel index="1" sourceIndex="1"/>
          </channelMap>
        </audioClip>
        <audioClip clipAutoCrossfade="true" crossFadeHeadClipID="3" crossFadeTailClipID="-1" endPoint="6745663" fileID="0" hue="-1" id="4" lockedInTime="false" looped="false" name="tmpd_dse66b 48000 2" offline="false" select="false" sourceInPoint="5353143" sourceOutPoint="6745663" startPoint="5353143" zOrder="3">
          <component componentGuid="650d121a-4f66-42ec-9c9e-09657c9e318f" componentID="Audition.Fader" id="clipGain" name="volume" powered="true">
            <parameter index="0" name="volume" parameterValue="1"/>
            <parameter index="1" name="static gain" parameterValue="1"/>
          </component>
          <component componentGuid="298ed3b6-35bb-417f-bea9-9e41883ac13b" componentID="Audition.Mute" id="clipMute" name="Mute" powered="true">
            <parameter index="0" parameterValue="0"/>
            <parameter index="1" name="mute" parameterValue="0"/>
          </component>
          <component componentGuid="b5f9b717-6e73-45d7-9f57-2b297c067bc5" componentID="Audition.StereoPanner" id="clipPan" name="StereoPanner" powered="true">
            <parameter index="0" name="声像" parameterValue="0"/>
          </component>
          <fadeIn crossFadeLinkType="linkedAsymmetric" endPoint="1391128" shape="19" startPoint="0" type="log"/>
          <fadeOut crossFadeLinkType="linkedAsymmetric" endPoint="1392520" shape="19" startPoint="1392520" type="log"/>
          <editParameter parameterIndex="0" slotIndex="4294967280"/>
          <editParameter parameterIndex="0" slotIndex="4294967281"/>
          <channelMap>
            <channel index="0" sourceIndex="0"/>
          </channelMap>
        </audioClip>
        <audioClip clipAutoCrossfade="true" crossFadeHeadClipID="-1" crossFadeTailClipID="-1" endPoint="8024858" fileID="0" hue="-1" id="5" lockedInTime="false" looped="false" name="tmpd_dse66b 48000 2" offline="false" select="false" sourceInPoint="6745663" sourceOutPoint="8024858" startPoint="6745663" zOrder="3">
          <component componentGuid="76d16f66-78d8-4f2a-9966-21c2d5dbdbc7" componentID="Audition.Fader" id="clipGain" name="volume" powered="true">
            <parameter index="0" name="volume" parameterValue="1"/>
            <parameter index="1" name="static gain" parameterValue="1"/>
          </component>
          <component componentGuid="b0fd56a7-7260-4b53-9204-699c6c440ee3" componentID="Audition.Mute" id="clipMute" name="Mute" powered="true">
            <parameter index="0" parameterValue="0"/>
            <parameter index="1" name="mute" parameterValue="0"/>
          </component>
          <component componentGuid="e0ccec44-6a56-4df3-a0d2-be11c78b3313" componentID="Audition.StereoPanner" id="clipPan" name="StereoPanner" powered="true">
            <parameter index="0" name="声像" parameterValue="0"/>
          </component>
          <fadeIn crossFadeLinkType="linkedAsymmetric" endPoint="0" shape="19" startPoint="0" type="log"/>
          <fadeOut crossFadeLinkType="linkedAsymmetric" endPoint="1279195" shape="19" startPoint="1279195" type="log"/>
          <editParameter parameterIndex="0" slotIndex="4294967280"/>
          <editParameter parameterIndex="0" slotIndex="4294967281"/>
          <channelMap>
            <channel index="0" sourceIndex="0"/>
          </channelMap>
        </audioClip>
        <audioClip clipAutoCrossfade="true" crossFadeHeadClipID="-1" crossFadeTailClipID="-1" endPoint="9410518" fileID="0" hue="-1" id="6" lockedInTime="false" looped="false" name="tmpd_dse66b 48000 2" offline="false" select="false" sourceInPoint="8024858" sourceOutPoint="9410518" startPoint="8024858" zOrder="3">
          <component componentGuid="3f7c0b3c-3089-4df2-83bc-28d29c597e14" componentID="Audition.Fader" id="clipGain" name="volume" powered="true">
            <parameter index="0" name="volume" parameterValue="1"/>
            <parameter index="1" name="static gain" parameterValue="1"/>
          </component>
          <component componentGuid="f6247739-a8e3-4021-881d-4edc460b6720" componentID="Audition.Mute" id="clipMute" name="Mute" powered="true">
            <parameter index="0" parameterValue="0"/>
            <parameter index="1" name="mute" parameterValue="0"/>
          </component>
          <component componentGuid="787acd4f-8857-4473-b498-4a9248c8b9e2" componentID="Audition.StereoPanner" id="clipPan" name="StereoPanner" powered="true">
            <parameter index="0" name="声像" parameterValue="0"/>
          </component>
          <fadeIn crossFadeLinkType="linkedAsymmetric" endPoint="0" shape="19" startPoint="0" type="log"/>
          <fadeOut crossFadeLinkType="linkedAsymmetric" endPoint="1385660" shape="19" startPoint="1385660" type="log"/>
          <editParameter parameterIndex="0" slotIndex="4294967280"/>
          <editParameter parameterIndex="0" slotIndex="4294967281"/>
          <channelMap>
            <channel index="0" sourceIndex="0"/>
          </channelMap>
        </audioClip>
        <audioClip clipAutoCrossfade="true" crossFadeHeadClipID="-1" crossFadeTailClipID="-1" endPoint="10071320" fileID="0" hue="-1" id="7" lockedInTime="false" looped="false" name="tmpd_dse66b 48000 2" offline="false" select="false" sourceInPoint="9410518" sourceOutPoint="10071320" startPoint="9410518" zOrder="22">
          <component componentGuid="feb4164d-7cbe-4921-a176-60f2d491d0e7" componentID="Audition.Fader" id="clipGain" name="volume" powered="true">
            <parameter index="0" name="volume" parameterValue="1"/>
            <parameter index="1" name="static gain" parameterValue="1"/>
          </component>
          <component componentGuid="4c84631a-2a82-4ca4-bf46-d0e9a7a9abdc" componentID="Audition.Mute" id="clipMute" name="Mute" powered="true">
            <parameter index="0" parameterValue="0"/>
            <parameter index="1" name="mute" parameterValue="0"/>
          </component>
          <component componentGuid="927cde26-c20d-46ee-b54a-2e9ff6a449ab" componentID="Audition.StereoPanner" id="clipPan" name="StereoPanner" powered="true">
            <parameter index="0" name="声像" parameterValue="-20.5128326416015625">
              <parameterKeyframes enableSplines="false" readOnly="false">
                <parameterKeyframe sampleOffset="9890735" select="true" type="linear" value="0.602564156055450439453125"/>
              </parameterKeyframes>
            </parameter>
          </component>
          <fadeIn crossFadeLinkType="linkedAsymmetric" endPoint="0" shape="19" startPoint="0" type="log"/>
          <fadeOut crossFadeLinkType="linkedAsymmetric" endPoint="660802" shape="19" startPoint="660802" type="log"/>
          <editParameter parameterIndex="0" slotIndex="4294967280"/>
          <editParameter parameterIndex="0" slotIndex="4294967281"/>
          <channelMap>
            <channel index="0" sourceIndex="0"/>
          </channelMap>
        </audioClip>
        <audioClip clipAutoCrossfade="true" crossFadeHeadClipID="-1" crossFadeTailClipID="-1" endPoint="10713119" fileID="0" hue="-1" id="8" lockedInTime="false" looped="false" name="tmpd_dse66b 48000 2" offline="false" select="false" sourceInPoint="10071320" sourceOutPoint="10713119" startPoint="10071320" zOrder="3">
          <component componentGuid="20df8944-e841-47a2-92c3-5a07977f795e" componentID="Audition.Fader" id="clipGain" name="volume" powered="true">
            <parameter index="0" name="volume" parameterValue="1"/>
            <parameter index="1" name="static gain" parameterValue="1"/>
          </component>
          <component componentGuid="7337758f-5d9e-42d9-8e59-b41e7f6d37e0" componentID="Audition.Mute" id="clipMute" name="Mute" powered="true">
            <parameter index="0" parameterValue="0"/>
            <parameter index="1" name="mute" parameterValue="0"/>
          </component>
          <component componentGuid="9f79f913-bb6d-44dc-9494-99f56288ca2f" componentID="Audition.StereoPanner" id="clipPan" name="StereoPanner" powered="true">
            <parameter index="0" name="声像" parameterValue="0"/>
          </component>
          <fadeIn crossFadeLinkType="linkedAsymmetric" endPoint="0" shape="19" startPoint="0" type="log"/>
          <fadeOut crossFadeLinkType="linkedAsymmetric" endPoint="641799" shape="19" startPoint="641799" type="log"/>
          <editParameter parameterIndex="0" slotIndex="4294967280"/>
          <editParameter parameterIndex="0" slotIndex="4294967281"/>
          <channelMap>
            <channel index="0" sourceIndex="0"/>
          </channelMap>
        </audioClip>
        <audioClip clipAutoCrossfade="true" crossFadeHeadClipID="-1" crossFadeTailClipID="-1" endPoint="12018271" fileID="0" hue="-1" id="9" lockedInTime="false" looped="false" name="tmpd_dse66b 48000 2" offline="false" select="false" sourceInPoint="10713119" sourceOutPoint="12018271" startPoint="10713119" zOrder="3">
          <component componentGuid="24c0d745-c9e4-4bd5-9b48-55e0aa272505" componentID="Audition.Fader" id="clipGain" name="volume" powered="true">
            <parameter index="0" name="volume" parameterValue="1"/>
            <parameter index="1" name="static gain" parameterValue="1"/>
          </component>
          <component componentGuid="6c13deab-9b8b-433d-998b-c00370cf5904" componentID="Audition.Mute" id="clipMute" name="Mute" powered="true">
            <parameter index="0" parameterValue="0"/>
            <parameter index="1" name="mute" parameterValue="0"/>
          </component>
          <component componentGuid="80921b4b-3c57-4705-8268-80cebfb17376" componentID="Audition.StereoPanner" id="clipPan" name="StereoPanner" powered="true">
            <parameter index="0" name="声像" parameterValue="0"/>
          </component>
          <fadeIn crossFadeLinkType="linkedAsymmetric" endPoint="0" shape="19" startPoint="0" type="log"/>
          <fadeOut crossFadeLinkType="linkedAsymmetric" endPoint="1305152" shape="19" startPoint="1305152" type="log"/>
          <editParameter parameterIndex="0" slotIndex="4294967280"/>
          <editParameter parameterIndex="0" slotIndex="4294967281"/>
          <channelMap>
            <channel index="0" sourceIndex="0"/>
          </channelMap>
        </audioClip>
        <audioClip clipAutoCrossfade="true" crossFadeHeadClipID="-1" crossFadeTailClipID="-1" endPoint="13437120" fileID="0" hue="-1" id="10" lockedInTime="false" looped="false" name="tmpd_dse66b 48000 2" offline="false" select="false" sourceInPoint="12018271" sourceOutPoint="13437120" startPoint="12018271" zOrder="3">
          <component componentGuid="b753f707-0846-493b-ab35-bfffd8e31310" componentID="Audition.Fader" id="clipGain" name="volume" powered="true">
            <parameter index="0" name="volume" parameterValue="1"/>
            <parameter index="1" name="static gain" parameterValue="1"/>
          </component>
          <component componentGuid="a484090b-b041-4097-be05-5de71ef938bb" componentID="Audition.Mute" id="clipMute" name="Mute" powered="true">
            <parameter index="0" parameterValue="0"/>
            <parameter index="1" name="mute" parameterValue="0"/>
          </component>
          <component componentGuid="26dba880-16b0-453a-9ab2-ad7d134490fa" componentID="Audition.StereoPanner" id="clipPan" name="StereoPanner" powered="true">
            <parameter index="0" name="声像" parameterValue="0"/>
          </component>
          <fadeIn crossFadeLinkType="linkedAsymmetric" endPoint="0" shape="19" startPoint="0" type="log"/>
          <fadeOut crossFadeLinkType="linkedAsymmetric" endPoint="1418849" shape="19" startPoint="1418849" type="log"/>
          <editParameter parameterIndex="0" slotIndex="4294967280"/>
          <editParameter parameterIndex="0" slotIndex="4294967281"/>
          <channelMap>
            <channel index="0" sourceIndex="0"/>
          </channelMap>
        </audioClip>
      </audioTrack>
      <audioTrack automationLaneOpenState="false" id="10002" index="2" select="false" visible="true">
        <trackParameters trackHeight="87" trackHue="267" trackMinimized="false">
          <name>轨道 2</name>
        </trackParameters>
        <trackAudioParameters audioChannelType="stereo" automationMode="1" monitoring="false" recordArmed="false" solo="false" soloSafe="false">
          <trackOutput outputID="10000" type="trackID"/>
          <trackInput inputID="1"/>
          <component componentGuid="54616299-a98c-4b5d-b6bb-a65b227d5ee9" componentID="Audition.Fader" id="trackFader" name="volume" powered="true">
            <parameter index="0" name="volume" parameterValue="1"/>
            <parameter index="1" name="static gain" parameterValue="1"/>
          </component>
          <component componentGuid="52b0e428-4138-4812-8750-9a4845cdd46e" componentID="Audition.Mute" id="trackMute" name="Mute" powered="true">
            <parameter index="0" parameterValue="0"/>
            <parameter index="1" name="mute" parameterValue="0"/>
          </component>
          <component componentGuid="282ace84-d0ec-4e25-8a5e-dd63388d7146" componentID="Audition.StereoPanner" id="trackPan" name="StereoPanner" powered="true">
            <parameter index="0" name="声像" parameterValue="0"/>
          </component>
          <component componentGuid="3fb61a0e-4dae-42f3-bb12-82e6ed69cc82" componentID="Audition.EQ" id="trackEQ" name="EQ" powered="false">
            <parameter index="0" name="下限频率" parameterValue="0.000834028352983295917510986328125"/>
            <parameter index="1" name="下限增益" parameterValue="0.5"/>
            <parameter index="2" name="上限频率" parameterValue="0.74979150295257568359375"/>
            <parameter index="3" name="上限频率增益" parameterValue="0.5"/>
            <parameter index="4" name="EQ 频段 1 中置频率" parameterValue="0.00125104258768260478973388671875"/>
            <parameter index="5" name="EQ 频段 1 Q" parameterValue="0.000199989997781813144683837890625"/>
            <parameter index="6" name="EQ 频段 1 增益" parameterValue="0.5"/>
            <parameter index="7" name="EQ 频段 1 启用" parameterValue="1"/>
            <parameter index="8" name="EQ 频段 2 中置频率" parameterValue="0.0075062550604343414306640625"/>
            <parameter index="9" name="EQ 频段 2 Q" parameterValue="0.000199989997781813144683837890625"/>
            <parameter index="10" name="EQ 频段 2 增益" parameterValue="0.5"/>
            <parameter index="11" name="EQ 频段 2 启用" parameterValue="1"/>
            <parameter index="12" name="EQ 频段 3 中置频率" parameterValue="0.0325271077454090118408203125"/>
            <parameter index="13" name="EQ 频段 3 Q" parameterValue="0.000199989997781813144683837890625"/>
            <parameter index="14" name="EQ 频段 3 增益" parameterValue="0.5"/>
            <parameter index="15" name="EQ 频段 3 启用" parameterValue="1"/>
            <parameter index="16" name="EQ 频段 4 中置频率" parameterValue="0.13261051476001739501953125"/>
            <parameter index="17" name="EQ 频段 4 Q" parameterValue="0.000199989997781813144683837890625"/>
            <parameter index="18" name="EQ 频段 4 增益" parameterValue="0.5"/>
            <parameter index="19" name="EQ 频段 4 启用" parameterValue="1"/>
            <parameter index="20" name="EQ 频段 5 中置频率" parameterValue="0.532944142818450927734375"/>
            <parameter index="21" name="EQ 频段 5 Q" parameterValue="0.000199989997781813144683837890625"/>
            <parameter index="22" name="EQ 频段 5 增益" parameterValue="0.5"/>
            <parameter index="23" name="EQ 频段 5 启用" parameterValue="1"/>
            <parameter index="24" name="增益" parameterValue="0.666666686534881591796875"/>
            <parameter index="25" name="恒定 Q" parameterValue="1"/>
            <parameter index="26" name="下限滤镜顺序" parameterValue="0"/>
            <parameter index="27" name="上限频率滤镜顺序" parameterValue="0"/>
            <parameter index="28" name="超静音模式" parameterValue="0"/>
            <parameter index="29" name="下限启用" parameterValue="1"/>
            <parameter index="30" name="上限频率启用" parameterValue="1"/>
            <parameter index="31" name="原始采样率" parameterValue="0.25"/>
            <parameter index="32" name="EQ 频段 1 频带宽" parameterValue="0.002499990165233612060546875"/>
            <parameter index="33" name="EQ 频段 2 频段宽度" parameterValue="0.0099999904632568359375"/>
            <parameter index="34" name="EQ 频段 3 频段宽度" parameterValue="0.0399999916553497314453125"/>
            <parameter index="35" name="EQ 频段 4 频段宽度" parameterValue="0.15999998152256011962890625"/>
            <parameter index="36" name="EQ 频段 5 频段宽度" parameterValue="0.63999998569488525390625"/>
            <parameter index="37" name="高通滤波启用" parameterValue="0"/>
            <parameter index="38" name="高通切除频率" parameterValue="0"/>
            <parameter index="39" name="高通斜率" parameterValue="0.4000000059604644775390625"/>
            <parameter index="40" name="低通滤波启用" parameterValue="0"/>
            <parameter index="41" name="低通切除频率" parameterValue="0.833194315433502197265625"/>
            <parameter index="42" name="低通斜率" parameterValue="0.4000000059604644775390625"/>
            <parameter index="43" name="不使用" parameterValue="0"/>
            <parameter index="44" name="下限图示范围" parameterValue="1"/>
          </component>
        </trackAudioParameters>
        <editParameter parameterIndex="0" slotIndex="4294967280"/>
        <audioClip clipAutoCrossfade="true" crossFadeHeadClipID="-1" crossFadeTailClipID="-1" endPoint="2287133" fileID="2" hue="-1" id="0" lockedInTime="false" looped="false" name="tmpae2c2lf7 48000 2" offline="false" select="false" sourceInPoint="0" sourceOutPoint="2287133" startPoint="0" zOrder="9">
          <component componentGuid="4d15e7c4-e1ad-4296-b90d-6fce61253a3d" componentID="Audition.Fader" id="clipGain" name="volume" powered="true">
            <parameter index="0" name="volume" parameterValue="1"/>
            <parameter index="1" name="static gain" parameterValue="1"/>
          </component>
          <component componentGuid="92674bca-c885-4d2b-8f8f-8c6d883dafa7" componentID="Audition.Mute" id="clipMute" name="Mute" powered="true">
            <parameter index="0" parameterValue="0"/>
            <parameter index="1" name="mute" parameterValue="0"/>
          </component>
          <component componentGuid="c46e0b8e-0738-4536-b61e-b6461ac17549" componentID="Audition.StereoPanner" id="clipPan" name="StereoPanner" powered="true">
            <parameter index="0" name="声像" parameterValue="0"/>
          </component>
          <fadeIn crossFadeLinkType="linkedAsymmetric" endPoint="0" shape="19" startPoint="0" type="log"/>
          <fadeOut crossFadeLinkType="linkedAsymmetric" endPoint="2287133" shape="19" startPoint="2287133" type="log"/>
          <editParameter parameterIndex="0" slotIndex="4294967280"/>
          <editParameter parameterIndex="0" slotIndex="4294967281"/>
          <channelMap>
            <channel index="0" sourceIndex="0"/>
          </channelMap>
        </audioClip>
        <audioClip clipAutoCrossfade="true" crossFadeHeadClipID="-1" crossFadeTailClipID="-1" endPoint="5350359" fileID="2" hue="-1" id="1" lockedInTime="false" looped="false" name="tmpae2c2lf7 48000 2" offline="false" select="false" sourceInPoint="4712516" sourceOutPoint="5350359" startPoint="4712516" zOrder="9">
          <component componentGuid="559c279c-bb81-4cfd-8c08-3628c0246d2c" componentID="Audition.Fader" id="clipGain" name="volume" powered="true">
            <parameter index="0" name="volume" parameterValue="1"/>
            <parameter index="1" name="static gain" parameterValue="1"/>
          </component>
          <component componentGuid="96f62807-1d9d-4b39-ac18-dd2491e3f79f" componentID="Audition.Mute" id="clipMute" name="Mute" powered="true">
            <parameter index="0" parameterValue="0"/>
            <parameter index="1" name="mute" parameterValue="0"/>
          </component>
          <component componentGuid="7aaa1f42-0f76-4976-a452-ee145f80abc0" componentID="Audition.StereoPanner" id="clipPan" name="StereoPanner" powered="true">
            <parameter index="0" name="声像" parameterValue="0"/>
          </component>
          <fadeIn crossFadeLinkType="linkedAsymmetric" endPoint="0" shape="19" startPoint="0" type="log"/>
          <fadeOut crossFadeLinkType="linkedAsymmetric" endPoint="637843" shape="19" startPoint="637843" type="log"/>
          <editParameter parameterIndex="0" slotIndex="4294967280"/>
          <editParameter parameterIndex="0" slotIndex="4294967281"/>
          <channelMap>
            <channel index="0" sourceIndex="0"/>
          </channelMap>
        </audioClip>
        <audioClip clipAutoCrossfade="true" crossFadeHeadClipID="-1" crossFadeTailClipID="-1" endPoint="8024858" fileID="2" hue="-1" id="2" lockedInTime="false" looped="false" name="tmpae2c2lf7 48000 2" offline="false" select="false" sourceInPoint="6745663" sourceOutPoint="8024858" startPoint="6745663" zOrder="9">
          <component componentGuid="e9c67e2e-4e3a-4fd4-9358-5c10895ebfcc" componentID="Audition.Fader" id="clipGain" name="volume" powered="true">
            <parameter index="0" name="volume" parameterValue="1"/>
            <parameter index="1" name="static gain" parameterValue="1"/>
          </component>
          <component componentGuid="d926a70d-1fbc-43d0-850c-0c6e43ead92a" componentID="Audition.Mute" id="clipMute" name="Mute" powered="true">
            <parameter index="0" parameterValue="0"/>
            <parameter index="1" name="mute" parameterValue="0"/>
          </component>
          <component componentGuid="9c8671fc-db06-4331-a7e9-248329256935" componentID="Audition.StereoPanner" id="clipPan" name="StereoPanner" powered="true">
            <parameter index="0" name="声像" parameterValue="0"/>
          </component>
          <fadeIn crossFadeLinkType="linkedAsymmetric" endPoint="0" shape="19" startPoint="0" type="log"/>
          <fadeOut crossFadeLinkType="linkedAsymmetric" endPoint="1279195" shape="19" startPoint="1279195" type="log"/>
          <editParameter parameterIndex="0" slotIndex="4294967280"/>
          <editParameter parameterIndex="0" slotIndex="4294967281"/>
          <channelMap>
            <channel index="0" sourceIndex="0"/>
          </channelMap>
        </audioClip>
        <audioClip clipAutoCrossfade="true" crossFadeHeadClipID="-1" crossFadeTailClipID="-1" endPoint="10071320" fileID="2" hue="-1" id="3" lockedInTime="false" looped="false" name="tmpae2c2lf7 48000 2" offline="false" select="false" sourceInPoint="9410518" sourceOutPoint="10074104" startPoint="9407734" zOrder="24">
          <component componentGuid="ffd6ba0f-c8e3-40dd-a675-bb3d4d436bdf" componentID="Audition.Fader" id="clipGain" name="volume" powered="true">
            <parameter index="0" name="volume" parameterValue="1"/>
            <parameter index="1" name="static gain" parameterValue="1"/>
          </component>
          <component componentGuid="d0ba3a71-d3e1-4c2d-add1-a42960711bfe" componentID="Audition.Mute" id="clipMute" name="Mute" powered="true">
            <parameter index="0" parameterValue="0"/>
            <parameter index="1" name="mute" parameterValue="0"/>
          </component>
          <component componentGuid="4bc33c70-8deb-46f0-9673-a53defe5e8a4" componentID="Audition.StereoPanner" id="clipPan" name="StereoPanner" powered="true">
            <parameter index="0" name="声像" parameterValue="20.51279449462890625"/>
          </component>
          <fadeIn crossFadeLinkType="linkedAsymmetric" endPoint="0" shape="18" startPoint="0" type="log"/>
          <fadeOut crossFadeLinkType="linkedAsymmetric" endPoint="663586" shape="18" startPoint="663586" type="log"/>
          <editParameter parameterIndex="0" slotIndex="4294967280"/>
          <editParameter parameterIndex="0" slotIndex="4294967281"/>
          <channelMap>
            <channel index="0" sourceIndex="0"/>
          </channelMap>
        </audioClip>
        <audioClip clipAutoCrossfade="true" crossFadeHeadClipID="-1" crossFadeTailClipID="-1" endPoint="11929272" fileID="2" hue="-1" id="4" lockedInTime="false" looped="false" name="tmpae2c2lf7 48000 2" offline="false" select="false" sourceInPoint="10714511" sourceOutPoint="11929272" startPoint="10714511" zOrder="9">
          <component componentGuid="f74a11d2-b188-4be1-8dc6-ddf1abac9409" componentID="Audition.Fader" id="clipGain" name="volume" powered="true">
            <parameter index="0" name="volume" parameterValue="1"/>
            <parameter index="1" name="static gain" parameterValue="1"/>
          </component>
          <component componentGuid="08903474-3ba7-4cb4-9785-55fcf3c5608f" componentID="Audition.Mute" id="clipMute" name="Mute" powered="true">
            <parameter index="0" parameterValue="0"/>
            <parameter index="1" name="mute" parameterValue="0"/>
          </component>
          <component componentGuid="74c30a7e-69db-4fe2-8f40-5d27f546da59" componentID="Audition.StereoPanner" id="clipPan" name="StereoPanner" powered="true">
            <parameter index="0" name="声像" parameterValue="0"/>
          </component>
          <fadeIn crossFadeLinkType="linkedAsymmetric" endPoint="0" shape="19" startPoint="0" type="log"/>
          <fadeOut crossFadeLinkType="linkedAsymmetric" endPoint="1214761" shape="19" startPoint="1214761" type="log"/>
          <editParameter parameterIndex="0" slotIndex="4294967280"/>
          <editParameter parameterIndex="0" slotIndex="4294967281"/>
          <channelMap>
            <channel index="0" sourceIndex="0"/>
          </channelMap>
        </audioClip>
        <audioClip clipAutoCrossfade="true" crossFadeHeadClipID="-1" crossFadeTailClipID="-1" endPoint="12679039" fileID="2" hue="-1" id="5" lockedInTime="false" looped="false" name="tmpae2c2lf7 48000 2" offline="false" select="false" sourceInPoint="12018271" sourceOutPoint="12679039" startPoint="12018271" zOrder="9">
          <component componentGuid="91cb096f-4cce-4039-bccc-7cec72e76823" componentID="Audition.Fader" id="clipGain" name="volume" powered="true">
            <parameter index="0" name="volume" parameterValue="1"/>
            <parameter index="1" name="static gain" parameterValue="1"/>
          </component>
          <component componentGuid="2b42f8c1-b7fa-4fcc-8c61-6e323f052b35" componentID="Audition.Mute" id="clipMute" name="Mute" powered="true">
            <parameter index="0" parameterValue="0"/>
            <parameter index="1" name="mute" parameterValue="0"/>
          </component>
          <component componentGuid="8f723e29-dd6c-4092-9a5b-90d829063a91" componentID="Audition.StereoPanner" id="clipPan" name="StereoPanner" powered="true">
            <parameter index="0" name="声像" parameterValue="0"/>
          </component>
          <fadeIn crossFadeLinkType="linkedAsymmetric" endPoint="0" shape="19" startPoint="0" type="log"/>
          <fadeOut crossFadeLinkType="linkedAsymmetric" endPoint="660768" shape="19" startPoint="660768" type="log"/>
          <editParameter parameterIndex="0" slotIndex="4294967280"/>
          <editParameter parameterIndex="0" slotIndex="4294967281"/>
          <channelMap>
            <channel index="0" sourceIndex="0"/>
          </channelMap>
        </audioClip>
      </audioTrack>
      <audioTrack automationLaneOpenState="false" id="10003" index="3" select="false" visible="true">
        <trackParameters trackHeight="87" trackHue="51" trackMinimized="false">
          <name>轨道 3</name>
        </trackParameters>
        <trackAudioParameters audioChannelType="stereo" automationMode="1" monitoring="false" recordArmed="false" solo="false" soloSafe="false">
          <trackOutput outputID="10000" type="trackID"/>
          <trackInput inputID="1"/>
          <component componentGuid="54c4d2f3-07ee-44ba-830e-adf3ed2ffa55" componentID="Audition.Fader" id="trackFader" name="volume" powered="true">
            <parameter index="0" name="volume" parameterValue="1"/>
            <parameter index="1" name="static gain" parameterValue="1"/>
          </component>
          <component componentGuid="7bbf2177-d475-443b-a25c-5412fb691110" componentID="Audition.Mute" id="trackMute" name="Mute" powered="true">
            <parameter index="0" parameterValue="0"/>
            <parameter index="1" name="mute" parameterValue="0"/>
          </component>
          <component componentGuid="740192fd-e74c-4da4-8659-7d365c83959c" componentID="Audition.StereoPanner" id="trackPan" name="StereoPanner" powered="true">
            <parameter index="0" name="声像" parameterValue="0"/>
          </component>
          <component componentGuid="9e248a4e-a8b5-4eae-8bf8-d58e74d5aec4" componentID="Audition.EQ" id="trackEQ" name="EQ" powered="false">
            <parameter index="0" name="下限频率" parameterValue="0.000834028352983295917510986328125"/>
            <parameter index="1" name="下限增益" parameterValue="0.5"/>
            <parameter index="2" name="上限频率" parameterValue="0.74979150295257568359375"/>
            <parameter index="3" name="上限频率增益" parameterValue="0.5"/>
            <parameter index="4" name="EQ 频段 1 中置频率" parameterValue="0.00125104258768260478973388671875"/>
            <parameter index="5" name="EQ 频段 1 Q" parameterValue="0.000199989997781813144683837890625"/>
            <parameter index="6" name="EQ 频段 1 增益" parameterValue="0.5"/>
            <parameter index="7" name="EQ 频段 1 启用" parameterValue="1"/>
            <parameter index="8" name="EQ 频段 2 中置频率" parameterValue="0.0075062550604343414306640625"/>
            <parameter index="9" name="EQ 频段 2 Q" parameterValue="0.000199989997781813144683837890625"/>
            <parameter index="10" name="EQ 频段 2 增益" parameterValue="0.5"/>
            <parameter index="11" name="EQ 频段 2 启用" parameterValue="1"/>
            <parameter index="12" name="EQ 频段 3 中置频率" parameterValue="0.0325271077454090118408203125"/>
            <parameter index="13" name="EQ 频段 3 Q" parameterValue="0.000199989997781813144683837890625"/>
            <parameter index="14" name="EQ 频段 3 增益" parameterValue="0.5"/>
            <parameter index="15" name="EQ 频段 3 启用" parameterValue="1"/>
            <parameter index="16" name="EQ 频段 4 中置频率" parameterValue="0.13261051476001739501953125"/>
            <parameter index="17" name="EQ 频段 4 Q" parameterValue="0.000199989997781813144683837890625"/>
            <parameter index="18" name="EQ 频段 4 增益" parameterValue="0.5"/>
            <parameter index="19" name="EQ 频段 4 启用" parameterValue="1"/>
            <parameter index="20" name="EQ 频段 5 中置频率" parameterValue="0.532944142818450927734375"/>
            <parameter index="21" name="EQ 频段 5 Q" parameterValue="0.000199989997781813144683837890625"/>
            <parameter index="22" name="EQ 频段 5 增益" parameterValue="0.5"/>
            <parameter index="23" name="EQ 频段 5 启用" parameterValue="1"/>
            <parameter index="24" name="增益" parameterValue="0.666666686534881591796875"/>
            <parameter index="25" name="恒定 Q" parameterValue="1"/>
            <parameter index="26" name="下限滤镜顺序" parameterValue="0"/>
            <parameter index="27" name="上限频率滤镜顺序" parameterValue="0"/>
            <parameter index="28" name="超静音模式" parameterValue="0"/>
            <parameter index="29" name="下限启用" parameterValue="1"/>
            <parameter index="30" name="上限频率启用" parameterValue="1"/>
            <parameter index="31" name="原始采样率" parameterValue="0.25"/>
            <parameter index="32" name="EQ 频段 1 频带宽" parameterValue="0.002499990165233612060546875"/>
            <parameter index="33" name="EQ 频段 2 频段宽度" parameterValue="0.0099999904632568359375"/>
            <parameter index="34" name="EQ 频段 3 频段宽度" parameterValue="0.0399999916553497314453125"/>
            <parameter index="35" name="EQ 频段 4 频段宽度" parameterValue="0.15999998152256011962890625"/>
            <parameter index="36" name="EQ 频段 5 频段宽度" parameterValue="0.63999998569488525390625"/>
            <parameter index="37" name="高通滤波启用" parameterValue="0"/>
            <parameter index="38" name="高通切除频率" parameterValue="0"/>
            <parameter index="39" name="高通斜率" parameterValue="0.4000000059604644775390625"/>
            <parameter index="40" name="低通滤波启用" parameterValue="0"/>
            <parameter index="41" name="低通切除频率" parameterValue="0.833194315433502197265625"/>
            <parameter index="42" name="低通斜率" parameterValue="0.4000000059604644775390625"/>
            <parameter index="43" name="不使用" parameterValue="0"/>
            <parameter index="44" name="下限图示范围" parameterValue="1"/>
          </component>
        </trackAudioParameters>
        <editParameter parameterIndex="0" slotIndex="4294967280"/>
        <audioClip clipAutoCrossfade="true" crossFadeHeadClipID="-1" crossFadeTailClipID="-1" endPoint="4712516" fileID="3" hue="-1" id="0" lockedInTime="false" looped="false" name="tmp0t49vwmw 48000 2" offline="false" select="false" sourceInPoint="4056775" sourceOutPoint="4712516" startPoint="4056775" zOrder="26">
          <component componentGuid="033ca68f-8750-4fdc-b4d4-edad13d8fd9d" componentID="Audition.Fader" id="clipGain" name="volume" powered="true">
            <parameter index="0" name="volume" parameterValue="1"/>
            <parameter index="1" name="static gain" parameterValue="1"/>
          </component>
          <component componentGuid="6cbd3e2d-8f57-4dbd-a597-21ab7484802c" componentID="Audition.Mute" id="clipMute" name="Mute" powered="true">
            <parameter index="0" parameterValue="0"/>
            <parameter index="1" name="mute" parameterValue="0"/>
          </component>
          <component componentGuid="8e416e57-bbaa-40db-97a9-336e535da622" componentID="Audition.StereoPanner" id="clipPan" name="StereoPanner" powered="true">
            <parameter index="0" name="声像" parameterValue="20.51270294189453125"/>
          </component>
          <fadeIn crossFadeLinkType="linkedAsymmetric" endPoint="0" shape="19" startPoint="0" type="log"/>
          <fadeOut crossFadeLinkType="linkedAsymmetric" endPoint="655741" shape="19" startPoint="655741" type="log"/>
          <editParameter parameterIndex="0" slotIndex="4294967280"/>
          <editParameter parameterIndex="0" slotIndex="4294967281"/>
          <channelMap>
            <channel index="0" sourceIndex="0"/>
          </channelMap>
        </audioClip>
        <audioClip clipAutoCrossfade="true" crossFadeHeadClipID="-1" crossFadeTailClipID="-1" endPoint="5354535" fileID="3" hue="-1" id="1" lockedInTime="false" looped="false" name="tmp0t49vwmw 48000 2" offline="false" select="false" sourceInPoint="4712516" sourceOutPoint="5354535" startPoint="4712516" zOrder="10">
          <component componentGuid="b5b63db3-8227-46fc-9fd2-8172bf51cb26" componentID="Audition.Fader" id="clipGain" name="volume" powered="true">
            <parameter index="0" name="volume" parameterValue="1"/>
            <parameter index="1" name="static gain" parameterValue="1"/>
          </component>
          <component componentGuid="4e6c459d-fb6d-45db-a33f-58ca7a4ba41a" componentID="Audition.Mute" id="clipMute" name="Mute" powered="true">
            <parameter index="0" parameterValue="0"/>
            <parameter index="1" name="mute" parameterValue="0"/>
          </component>
          <component componentGuid="bff0c3af-c01f-4c2b-81f8-024e77aa4a7e" componentID="Audition.StereoPanner" id="clipPan" name="StereoPanner" powered="true">
            <parameter index="0" name="声像" parameterValue="0"/>
          </component>
          <fadeIn crossFadeLinkType="linkedAsymmetric" endPoint="0" shape="19" startPoint="0" type="log"/>
          <fadeOut crossFadeLinkType="linkedAsymmetric" endPoint="642019" shape="19" startPoint="642019" type="log"/>
          <editParameter parameterIndex="0" slotIndex="4294967280"/>
          <editParameter parameterIndex="0" slotIndex="4294967281"/>
          <channelMap>
            <channel index="0" sourceIndex="0"/>
          </channelMap>
        </audioClip>
        <audioClip clipAutoCrossfade="true" crossFadeHeadClipID="-1" crossFadeTailClipID="3" endPoint="10071320" fileID="3" hue="-1" id="2" lockedInTime="false" looped="false" name="tmp0t49vwmw 48000 2" offline="false" select="false" sourceInPoint="9410518" sourceOutPoint="10071320" startPoint="9410518" zOrder="20">
          <component componentGuid="0896072d-76ff-4e06-b590-87744f1fbb0b" componentID="Audition.Fader" id="clipGain" name="volume" powered="true">
            <parameter index="0" name="volume" parameterValue="1"/>
            <parameter index="1" name="static gain" parameterValue="1"/>
          </component>
          <component componentGuid="cf5dc6a0-3148-4d67-9cc9-87e1877942da" componentID="Audition.Mute" id="clipMute" name="Mute" powered="true">
            <parameter index="0" parameterValue="0"/>
            <parameter index="1" name="mute" parameterValue="0"/>
          </component>
          <component componentGuid="95633176-02af-418c-8b1e-10e34100970d" componentID="Audition.StereoPanner" id="clipPan" name="StereoPanner" powered="true">
            <parameter index="0" name="声像" parameterValue="0"/>
          </component>
          <fadeIn crossFadeLinkType="linkedAsymmetric" endPoint="0" shape="19" startPoint="0" type="log"/>
          <fadeOut crossFadeLinkType="linkedAsymmetric" endPoint="660802" shape="19" startPoint="658018" type="log"/>
          <editParameter parameterIndex="0" slotIndex="4294967280"/>
          <editParameter parameterIndex="0" slotIndex="4294967281"/>
          <channelMap>
            <channel index="0" sourceIndex="0"/>
          </channelMap>
        </audioClip>
        <audioClip clipAutoCrossfade="true" crossFadeHeadClipID="2" crossFadeTailClipID="-1" endPoint="10713119" fileID="3" hue="-1" id="3" lockedInTime="false" looped="false" name="tmp0t49vwmw 48000 2" offline="false" select="false" sourceInPoint="10071320" sourceOutPoint="10715903" startPoint="10068536" zOrder="27">
          <component componentGuid="6b074443-6ec6-4b09-ac30-ac02de6881fe" componentID="Audition.Fader" id="clipGain" name="volume" powered="true">
            <parameter index="0" name="volume" parameterValue="1"/>
            <parameter index="1" name="static gain" parameterValue="1"/>
          </component>
          <component componentGuid="14afe68f-5639-4278-9418-9964d7bfb0f8" componentID="Audition.Mute" id="clipMute" name="Mute" powered="true">
            <parameter index="0" parameterValue="0"/>
            <parameter index="1" name="mute" parameterValue="0"/>
          </component>
          <component componentGuid="6ac18fda-90f9-4cee-9c38-4bfc829f7013" componentID="Audition.StereoPanner" id="clipPan" name="StereoPanner" powered="true">
            <parameter index="0" name="声像" parameterValue="0"/>
          </component>
          <fadeIn crossFadeLinkType="linkedAsymmetric" endPoint="2784" shape="18" startPoint="0" type="log"/>
          <fadeOut crossFadeLinkType="linkedAsymmetric" endPoint="644583" shape="19" startPoint="644583" type="log"/>
          <editParameter parameterIndex="0" slotIndex="4294967280"/>
          <editParameter parameterIndex="0" slotIndex="4294967281"/>
          <channelMap>
            <channel index="0" sourceIndex="0"/>
          </channelMap>
        </audioClip>
        <audioClip clipAutoCrossfade="true" crossFadeHeadClipID="-1" crossFadeTailClipID="-1" endPoint="12681823" fileID="3" hue="-1" id="4" lockedInTime="false" looped="false" name="tmp0t49vwmw 48000 2" offline="false" select="false" sourceInPoint="12015487" sourceOutPoint="12681823" startPoint="12015487" zOrder="20">
          <component componentGuid="8442de16-a4ad-43be-9a3e-22e234adeb84" componentID="Audition.Fader" id="clipGain" name="volume" powered="true">
            <parameter index="0" name="volume" parameterValue="1"/>
            <parameter index="1" name="static gain" parameterValue="1"/>
          </component>
          <component componentGuid="b7bbcf80-3ea5-4c76-8b1b-6b06d0921c20" componentID="Audition.Mute" id="clipMute" name="Mute" powered="true">
            <parameter index="0" parameterValue="0"/>
            <parameter index="1" name="mute" parameterValue="0"/>
          </component>
          <component componentGuid="606fc989-7d58-471f-898b-b6345683f60c" componentID="Audition.StereoPanner" id="clipPan" name="StereoPanner" powered="true">
            <parameter index="0" name="声像" parameterValue="0"/>
          </component>
          <fadeIn crossFadeLinkType="linkedAsymmetric" endPoint="0" shape="19" startPoint="0" type="log"/>
          <fadeOut crossFadeLinkType="linkedAsymmetric" endPoint="666336" shape="19" startPoint="666336" type="log"/>
          <editParameter parameterIndex="0" slotIndex="4294967280"/>
          <editParameter parameterIndex="0" slotIndex="4294967281"/>
          <channelMap>
            <channel index="0" sourceIndex="0"/>
          </channelMap>
        </audioClip>
      </audioTrack>
      <audioTrack automationLaneOpenState="false" id="10004" index="4" select="false" visible="true">
        <trackParameters trackHeight="87" trackHue="182" trackMinimized="false">
          <name>轨道 4</name>
        </trackParameters>
        <trackAudioParameters audioChannelType="stereo" automationMode="1" monitoring="false" recordArmed="false" solo="false" soloSafe="false">
          <trackOutput outputID="10000" type="trackID"/>
          <trackInput inputID="1"/>
          <component componentGuid="c51853fa-cd5b-4e00-9a95-68642357565a" componentID="Audition.Fader" id="trackFader" name="volume" powered="true">
            <parameter index="0" name="volume" parameterValue="0.89125978946685791015625"/>
            <parameter index="1" name="static gain" parameterValue="1"/>
          </component>
          <component componentGuid="699a1204-3f63-4545-ab19-a85285170a3c" componentID="Audition.Mute" id="trackMute" name="Mute" powered="true">
            <parameter index="0" parameterValue="0"/>
            <parameter index="1" name="mute" parameterValue="0"/>
          </component>
          <component componentGuid="6c5ef30c-3d1e-48dd-9016-49ece645f910" componentID="Audition.StereoPanner" id="trackPan" name="StereoPanner" powered="true">
            <parameter index="0" name="声像" parameterValue="-1.6999969482421875"/>
          </component>
          <component componentGuid="0b0f5d6e-97f5-4e2e-b9f8-ae257e8182ac" componentID="Audition.EQ" id="trackEQ" name="EQ" powered="false">
            <parameter index="0" name="下限频率" parameterValue="0.000834028352983295917510986328125"/>
            <parameter index="1" name="下限增益" parameterValue="0.5"/>
            <parameter index="2" name="上限频率" parameterValue="0.74979150295257568359375"/>
            <parameter index="3" name="上限频率增益" parameterValue="0.5"/>
            <parameter index="4" name="EQ 频段 1 中置频率" parameterValue="0.00125104258768260478973388671875"/>
            <parameter index="5" name="EQ 频段 1 Q" parameterValue="0.000199989997781813144683837890625"/>
            <parameter index="6" name="EQ 频段 1 增益" parameterValue="0.5"/>
            <parameter index="7" name="EQ 频段 1 启用" parameterValue="1"/>
            <parameter index="8" name="EQ 频段 2 中置频率" parameterValue="0.0075062550604343414306640625"/>
            <parameter index="9" name="EQ 频段 2 Q" parameterValue="0.000199989997781813144683837890625"/>
            <parameter index="10" name="EQ 频段 2 增益" parameterValue="0.5"/>
            <parameter index="11" name="EQ 频段 2 启用" parameterValue="1"/>
            <parameter index="12" name="EQ 频段 3 中置频率" parameterValue="0.0325271077454090118408203125"/>
            <parameter index="13" name="EQ 频段 3 Q" parameterValue="0.000199989997781813144683837890625"/>
            <parameter index="14" name="EQ 频段 3 增益" parameterValue="0.5"/>
            <parameter index="15" name="EQ 频段 3 启用" parameterValue="1"/>
            <parameter index="16" name="EQ 频段 4 中置频率" parameterValue="0.13261051476001739501953125"/>
            <parameter index="17" name="EQ 频段 4 Q" parameterValue="0.000199989997781813144683837890625"/>
            <parameter index="18" name="EQ 频段 4 增益" parameterValue="0.5"/>
            <parameter index="19" name="EQ 频段 4 启用" parameterValue="1"/>
            <parameter index="20" name="EQ 频段 5 中置频率" parameterValue="0.532944142818450927734375"/>
            <parameter index="21" name="EQ 频段 5 Q" parameterValue="0.000199989997781813144683837890625"/>
            <parameter index="22" name="EQ 频段 5 增益" parameterValue="0.5"/>
            <parameter index="23" name="EQ 频段 5 启用" parameterValue="1"/>
            <parameter index="24" name="增益" parameterValue="0.666666686534881591796875"/>
            <parameter index="25" name="恒定 Q" parameterValue="1"/>
            <parameter index="26" name="下限滤镜顺序" parameterValue="0"/>
            <parameter index="27" name="上限频率滤镜顺序" parameterValue="0"/>
            <parameter index="28" name="超静音模式" parameterValue="0"/>
            <parameter index="29" name="下限启用" parameterValue="1"/>
            <parameter index="30" name="上限频率启用" parameterValue="1"/>
            <parameter index="31" name="原始采样率" parameterValue="0.25"/>
            <parameter index="32" name="EQ 频段 1 频带宽" parameterValue="0.002499990165233612060546875"/>
            <parameter index="33" name="EQ 频段 2 频段宽度" parameterValue="0.0099999904632568359375"/>
            <parameter index="34" name="EQ 频段 3 频段宽度" parameterValue="0.0399999916553497314453125"/>
            <parameter index="35" name="EQ 频段 4 频段宽度" parameterValue="0.15999998152256011962890625"/>
            <parameter index="36" name="EQ 频段 5 频段宽度" parameterValue="0.63999998569488525390625"/>
            <parameter index="37" name="高通滤波启用" parameterValue="0"/>
            <parameter index="38" name="高通切除频率" parameterValue="0"/>
            <parameter index="39" name="高通斜率" parameterValue="0.4000000059604644775390625"/>
            <parameter index="40" name="低通滤波启用" parameterValue="0"/>
            <parameter index="41" name="低通切除频率" parameterValue="0.833194315433502197265625"/>
            <parameter index="42" name="低通斜率" parameterValue="0.4000000059604644775390625"/>
            <parameter index="43" name="不使用" parameterValue="0"/>
            <parameter index="44" name="下限图示范围" parameterValue="1"/>
          </component>
        </trackAudioParameters>
        <editParameter parameterIndex="0" slotIndex="4294967280"/>
        <audioClip clipAutoCrossfade="true" crossFadeHeadClipID="-1" crossFadeTailClipID="-1" endPoint="13438736" fileID="4" hue="-1" id="0" lockedInTime="false" looped="false" name="64347069_vocals_reverb 48000 2" offline="false" select="false" sourceInPoint="0" sourceOutPoint="13438736" startPoint="0" zOrder="5">
          <component componentGuid="7be0e0ca-b2ee-47d1-84ee-d35c615f44e8" componentID="Audition.Fader" id="clipGain" name="volume" powered="true">
            <parameter index="0" name="volume" parameterValue="1"/>
            <parameter index="1" name="static gain" parameterValue="1"/>
          </component>
          <component componentGuid="41d196ac-9ae6-49b3-8424-ac9fee1fad25" componentID="Audition.Mute" id="clipMute" name="Mute" powered="true">
            <parameter index="0" parameterValue="0"/>
            <parameter index="1" name="mute" parameterValue="0"/>
          </component>
          <component componentGuid="2810da95-3546-4ab9-8431-5c76f90cce8f" componentID="Audition.StereoPanner" id="clipPan" name="StereoPanner" powered="true">
            <parameter index="0" name="声像" parameterValue="0"/>
          </component>
          <fadeIn crossFadeLinkType="linkedAsymmetric" endPoint="0" shape="19" startPoint="0" type="log"/>
          <fadeOut crossFadeLinkType="linkedAsymmetric" endPoint="13438736" shape="19" startPoint="13438736" type="log"/>
          <editParameter parameterIndex="0" slotIndex="4294967280"/>
          <editParameter parameterIndex="0" slotIndex="4294967281"/>
          <channelMap>
            <channel index="0" sourceIndex="0"/>
            <channel index="1" sourceIndex="1"/>
          </channelMap>
        </audioClip>
      </audioTrack>
      <audioTrack automationLaneOpenState="false" id="10005" index="5" select="true" visible="true">
        <trackParameters trackHeight="87" trackHue="294" trackMinimized="false">
          <name>轨道 5</name>
        </trackParameters>
        <trackAudioParameters audioChannelType="stereo" automationMode="1" monitoring="false" recordArmed="false" solo="false" soloSafe="false">
          <trackOutput outputID="10000" type="trackID"/>
          <trackInput inputID="1"/>
          <component componentGuid="8402d39d-ed80-43f7-93f8-1c6f6f083066" componentID="Audition.Fader" id="trackFader" name="volume" powered="true">
            <parameter index="0" name="volume" parameterValue="1"/>
            <parameter index="1" name="static gain" parameterValue="1"/>
          </component>
          <component componentGuid="99b91065-9161-4f5a-96f9-b840138d6bda" componentID="Audition.Mute" id="trackMute" name="Mute" powered="true">
            <parameter index="0" parameterValue="0"/>
            <parameter index="1" name="mute" parameterValue="0"/>
          </component>
          <component componentGuid="da50e477-b3b0-4482-a9c7-6a9126f1fce5" componentID="Audition.StereoPanner" id="trackPan" name="StereoPanner" powered="true">
            <parameter index="0" name="声像" parameterValue="0"/>
          </component>
          <component componentGuid="adcb1a34-7473-4ab0-8567-50d0285383e9" componentID="Audition.EQ" id="trackEQ" name="EQ" powered="false">
            <parameter index="0" name="下限频率" parameterValue="0.000834028352983295917510986328125"/>
            <parameter index="1" name="下限增益" parameterValue="0.5"/>
            <parameter index="2" name="上限频率" parameterValue="0.74979150295257568359375"/>
            <parameter index="3" name="上限频率增益" parameterValue="0.5"/>
            <parameter index="4" name="EQ 频段 1 中置频率" parameterValue="0.00125104258768260478973388671875"/>
            <parameter index="5" name="EQ 频段 1 Q" parameterValue="0.000199989997781813144683837890625"/>
            <parameter index="6" name="EQ 频段 1 增益" parameterValue="0.5"/>
            <parameter index="7" name="EQ 频段 1 启用" parameterValue="1"/>
            <parameter index="8" name="EQ 频段 2 中置频率" parameterValue="0.0075062550604343414306640625"/>
            <parameter index="9" name="EQ 频段 2 Q" parameterValue="0.000199989997781813144683837890625"/>
            <parameter index="10" name="EQ 频段 2 增益" parameterValue="0.5"/>
            <parameter index="11" name="EQ 频段 2 启用" parameterValue="1"/>
            <parameter index="12" name="EQ 频段 3 中置频率" parameterValue="0.0325271077454090118408203125"/>
            <parameter index="13" name="EQ 频段 3 Q" parameterValue="0.000199989997781813144683837890625"/>
            <parameter index="14" name="EQ 频段 3 增益" parameterValue="0.5"/>
            <parameter index="15" name="EQ 频段 3 启用" parameterValue="1"/>
            <parameter index="16" name="EQ 频段 4 中置频率" parameterValue="0.13261051476001739501953125"/>
            <parameter index="17" name="EQ 频段 4 Q" parameterValue="0.000199989997781813144683837890625"/>
            <parameter index="18" name="EQ 频段 4 增益" parameterValue="0.5"/>
            <parameter index="19" name="EQ 频段 4 启用" parameterValue="1"/>
            <parameter index="20" name="EQ 频段 5 中置频率" parameterValue="0.532944142818450927734375"/>
            <parameter index="21" name="EQ 频段 5 Q" parameterValue="0.000199989997781813144683837890625"/>
            <parameter index="22" name="EQ 频段 5 增益" parameterValue="0.5"/>
            <parameter index="23" name="EQ 频段 5 启用" parameterValue="1"/>
            <parameter index="24" name="增益" parameterValue="0.666666686534881591796875"/>
            <parameter index="25" name="恒定 Q" parameterValue="1"/>
            <parameter index="26" name="下限滤镜顺序" parameterValue="0"/>
            <parameter index="27" name="上限频率滤镜顺序" parameterValue="0"/>
            <parameter index="28" name="超静音模式" parameterValue="0"/>
            <parameter index="29" name="下限启用" parameterValue="1"/>
            <parameter index="30" name="上限频率启用" parameterValue="1"/>
            <parameter index="31" name="原始采样率" parameterValue="0.25"/>
            <parameter index="32" name="EQ 频段 1 频带宽" parameterValue="0.002499990165233612060546875"/>
            <parameter index="33" name="EQ 频段 2 频段宽度" parameterValue="0.0099999904632568359375"/>
            <parameter index="34" name="EQ 频段 3 频段宽度" parameterValue="0.0399999916553497314453125"/>
            <parameter index="35" name="EQ 频段 4 频段宽度" parameterValue="0.15999998152256011962890625"/>
            <parameter index="36" name="EQ 频段 5 频段宽度" parameterValue="0.63999998569488525390625"/>
            <parameter index="37" name="高通滤波启用" parameterValue="0"/>
            <parameter index="38" name="高通切除频率" parameterValue="0"/>
            <parameter index="39" name="高通斜率" parameterValue="0.4000000059604644775390625"/>
            <parameter index="40" name="低通滤波启用" parameterValue="0"/>
            <parameter index="41" name="低通切除频率" parameterValue="0.833194315433502197265625"/>
            <parameter index="42" name="低通斜率" parameterValue="0.4000000059604644775390625"/>
            <parameter index="43" name="不使用" parameterValue="0"/>
            <parameter index="44" name="下限图示范围" parameterValue="1"/>
          </component>
        </trackAudioParameters>
        <editParameter parameterIndex="0" slotIndex="4294967280"/>
        <audioClip clipAutoCrossfade="true" crossFadeHeadClipID="-1" crossFadeTailClipID="-1" endPoint="5351751" fileID="1" hue="-1" id="0" lockedInTime="false" looped="false" name="64347069 48000 2" offline="false" select="false" sourceInPoint="0" sourceOutPoint="5351751" startPoint="0" zOrder="11">
          <component componentGuid="957368b3-97bb-4286-9b1b-3bbf94fc3f34" componentID="Audition.Fader" id="clipGain" name="volume" powered="true">
            <parameter index="0" name="volume" parameterValue="1"/>
            <parameter index="1" name="static gain" parameterValue="1"/>
          </component>
          <component componentGuid="760cdcd3-2a82-4f9b-9055-29d7d1e72396" componentID="Audition.Mute" id="clipMute" name="Mute" powered="true">
            <parameter index="0" parameterValue="0"/>
            <parameter index="1" name="mute" parameterValue="0"/>
          </component>
          <component componentGuid="be7d8e64-df09-4a2e-b86f-091c3811ddc9" componentID="Audition.StereoPanner" id="clipPan" name="StereoPanner" powered="true">
            <parameter index="0" name="声像" parameterValue="0"/>
          </component>
          <fadeIn crossFadeLinkType="linkedAsymmetric" endPoint="0" shape="19" startPoint="0" type="log"/>
          <fadeOut crossFadeLinkType="linkedAsymmetric" endPoint="5351751" shape="19" startPoint="5351751" type="log"/>
          <editParameter parameterIndex="0" slotIndex="4294967280"/>
          <editParameter parameterIndex="0" slotIndex="4294967281"/>
          <channelMap>
            <channel index="0" sourceIndex="0"/>
            <channel index="1" sourceIndex="1"/>
          </channelMap>
        </audioClip>
        <audioClip clipAutoCrossfade="true" crossFadeHeadClipID="-1" crossFadeTailClipID="-1" endPoint="13438736" fileID="1" hue="-1" id="1" lockedInTime="false" looped="false" name="64347069 48000 2" offline="false" select="false" sourceInPoint="6744271" sourceOutPoint="13438736" startPoint="6744271" zOrder="11">
          <component componentGuid="c00673be-763c-4264-83b9-7238fbde1709" componentID="Audition.Fader" id="clipGain" name="volume" powered="true">
            <parameter index="0" name="volume" parameterValue="1"/>
            <parameter index="1" name="static gain" parameterValue="1"/>
          </component>
          <component componentGuid="5c9bc100-e0cd-48e7-b617-03c3e73215ec" componentID="Audition.Mute" id="clipMute" name="Mute" powered="true">
            <parameter index="0" parameterValue="0"/>
            <parameter index="1" name="mute" parameterValue="0"/>
          </component>
          <component componentGuid="4756c09b-1f7c-4a58-b040-01202e25003a" componentID="Audition.StereoPanner" id="clipPan" name="StereoPanner" powered="true">
            <parameter index="0" name="声像" parameterValue="0"/>
          </component>
          <fadeIn crossFadeLinkType="linkedAsymmetric" endPoint="0" shape="19" startPoint="0" type="log"/>
          <fadeOut crossFadeLinkType="linkedAsymmetric" endPoint="6694465" shape="19" startPoint="6694465" type="log"/>
          <editParameter parameterIndex="0" slotIndex="4294967280"/>
          <editParameter parameterIndex="0" slotIndex="4294967281"/>
          <channelMap>
            <channel index="0" sourceIndex="0"/>
            <channel index="1" sourceIndex="1"/>
          </channelMap>
        </audioClip>
      </audioTrack>
      <audioTrack automationLaneOpenState="false" id="10006" index="6" select="false" visible="true">
        <trackParameters trackHeight="87" trackHue="92" trackMinimized="false">
          <name>轨道 6</name>
        </trackParameters>
        <trackAudioParameters audioChannelType="stereo" automationMode="1" monitoring="false" recordArmed="false" solo="false" soloSafe="false">
          <trackOutput outputID="10000" type="trackID"/>
          <trackInput inputID="1"/>
          <component componentGuid="949b7340-ee3f-4e1d-8a8c-fc10d70916e3" componentID="Audition.Fader" id="trackFader" name="volume" powered="true">
            <parameter index="0" name="volume" parameterValue="1"/>
            <parameter index="1" name="static gain" parameterValue="1"/>
          </component>
          <component componentGuid="169df0d7-ad26-4a4f-ba76-4dec143d3988" componentID="Audition.Mute" id="trackMute" name="Mute" powered="true">
            <parameter index="0" parameterValue="0"/>
            <parameter index="1" name="mute" parameterValue="0"/>
          </component>
          <component componentGuid="0a4b91d1-d7a3-4967-96fb-289aa3146718" componentID="Audition.StereoPanner" id="trackPan" name="StereoPanner" powered="true">
            <parameter index="0" name="声像" parameterValue="0"/>
          </component>
          <component componentGuid="07e866cb-0dcb-49f1-81eb-3a80e7352d39" componentID="Audition.EQ" id="trackEQ" name="EQ" powered="false">
            <parameter index="0" name="下限频率" parameterValue="0.000834028352983295917510986328125"/>
            <parameter index="1" name="下限增益" parameterValue="0.5"/>
            <parameter index="2" name="上限频率" parameterValue="0.74979150295257568359375"/>
            <parameter index="3" name="上限频率增益" parameterValue="0.5"/>
            <parameter index="4" name="EQ 频段 1 中置频率" parameterValue="0.00125104258768260478973388671875"/>
            <parameter index="5" name="EQ 频段 1 Q" parameterValue="0.000199989997781813144683837890625"/>
            <parameter index="6" name="EQ 频段 1 增益" parameterValue="0.5"/>
            <parameter index="7" name="EQ 频段 1 启用" parameterValue="1"/>
            <parameter index="8" name="EQ 频段 2 中置频率" parameterValue="0.0075062550604343414306640625"/>
            <parameter index="9" name="EQ 频段 2 Q" parameterValue="0.000199989997781813144683837890625"/>
            <parameter index="10" name="EQ 频段 2 增益" parameterValue="0.5"/>
            <parameter index="11" name="EQ 频段 2 启用" parameterValue="1"/>
            <parameter index="12" name="EQ 频段 3 中置频率" parameterValue="0.0325271077454090118408203125"/>
            <parameter index="13" name="EQ 频段 3 Q" parameterValue="0.000199989997781813144683837890625"/>
            <parameter index="14" name="EQ 频段 3 增益" parameterValue="0.5"/>
            <parameter index="15" name="EQ 频段 3 启用" parameterValue="1"/>
            <parameter index="16" name="EQ 频段 4 中置频率" parameterValue="0.13261051476001739501953125"/>
            <parameter index="17" name="EQ 频段 4 Q" parameterValue="0.000199989997781813144683837890625"/>
            <parameter index="18" name="EQ 频段 4 增益" parameterValue="0.5"/>
            <parameter index="19" name="EQ 频段 4 启用" parameterValue="1"/>
            <parameter index="20" name="EQ 频段 5 中置频率" parameterValue="0.532944142818450927734375"/>
            <parameter index="21" name="EQ 频段 5 Q" parameterValue="0.000199989997781813144683837890625"/>
            <parameter index="22" name="EQ 频段 5 增益" parameterValue="0.5"/>
            <parameter index="23" name="EQ 频段 5 启用" parameterValue="1"/>
            <parameter index="24" name="增益" parameterValue="0.666666686534881591796875"/>
            <parameter index="25" name="恒定 Q" parameterValue="1"/>
            <parameter index="26" name="下限滤镜顺序" parameterValue="0"/>
            <parameter index="27" name="上限频率滤镜顺序" parameterValue="0"/>
            <parameter index="28" name="超静音模式" parameterValue="0"/>
            <parameter index="29" name="下限启用" parameterValue="1"/>
            <parameter index="30" name="上限频率启用" parameterValue="1"/>
            <parameter index="31" name="原始采样率" parameterValue="0.25"/>
            <parameter index="32" name="EQ 频段 1 频带宽" parameterValue="0.002499990165233612060546875"/>
            <parameter index="33" name="EQ 频段 2 频段宽度" parameterValue="0.0099999904632568359375"/>
            <parameter index="34" name="EQ 频段 3 频段宽度" parameterValue="0.0399999916553497314453125"/>
            <parameter index="35" name="EQ 频段 4 频段宽度" parameterValue="0.15999998152256011962890625"/>
            <parameter index="36" name="EQ 频段 5 频段宽度" parameterValue="0.63999998569488525390625"/>
            <parameter index="37" name="高通滤波启用" parameterValue="0"/>
            <parameter index="38" name="高通切除频率" parameterValue="0"/>
            <parameter index="39" name="高通斜率" parameterValue="0.4000000059604644775390625"/>
            <parameter index="40" name="低通滤波启用" parameterValue="0"/>
            <parameter index="41" name="低通切除频率" parameterValue="0.833194315433502197265625"/>
            <parameter index="42" name="低通斜率" parameterValue="0.4000000059604644775390625"/>
            <parameter index="43" name="不使用" parameterValue="0"/>
            <parameter index="44" name="下限图示范围" parameterValue="1"/>
          </component>
        </trackAudioParameters>
        <editParameter parameterIndex="0" slotIndex="4294967280"/>
      </audioTrack>
      <masterTrack automationLaneOpenState="false" id="10000" index="7" select="false" visible="true">
        <trackParameters trackHeight="87" trackHue="-1" trackMinimized="false">
          <name>混合</name>
        </trackParameters>
        <trackAudioParameters audioChannelType="stereo" automationMode="1" monitoring="false" recordArmed="false" solo="false" soloSafe="true">
          <trackOutput outputID="1" type="hardwareOutput"/>
          <trackInput inputID="-1"/>
          <component componentGuid="d7bc88f8-7705-45dd-873d-e88a1ce8f8c3" componentID="Audition.Fader" id="trackFader" name="volume" powered="true">
            <parameter index="0" name="volume" parameterValue="1"/>
            <parameter index="1" name="static gain" parameterValue="1"/>
          </component>
          <component componentGuid="0ad28fdc-d51d-48a1-a4ad-810fe09ee92b" componentID="Audition.Mute" id="trackMute" name="Mute" powered="true">
            <parameter index="0" parameterValue="0"/>
            <parameter index="1" name="mute" parameterValue="0"/>
          </component>
          <component componentGuid="d978e876-85e5-4810-987f-4f8af2383a61" componentID="Audition.StereoPanner" id="trackPan" name="StereoPanner" powered="true">
            <parameter index="0" name="声像" parameterValue="0"/>
          </component>
          <component componentGuid="4452b107-13d6-415a-9a13-d29560f250ad" componentID="Audition.EQ" id="trackEQ" name="EQ" powered="false">
            <parameter index="0" name="下限频率" parameterValue="0.000834028352983295917510986328125"/>
            <parameter index="1" name="下限增益" parameterValue="0.5"/>
            <parameter index="2" name="上限频率" parameterValue="0.74979150295257568359375"/>
            <parameter index="3" name="上限频率增益" parameterValue="0.5"/>
            <parameter index="4" name="EQ 频段 1 中置频率" parameterValue="0.00125104258768260478973388671875"/>
            <parameter index="5" name="EQ 频段 1 Q" parameterValue="0.000199989997781813144683837890625"/>
            <parameter index="6" name="EQ 频段 1 增益" parameterValue="0.5"/>
            <parameter index="7" name="EQ 频段 1 启用" parameterValue="1"/>
            <parameter index="8" name="EQ 频段 2 中置频率" parameterValue="0.0075062550604343414306640625"/>
            <parameter index="9" name="EQ 频段 2 Q" parameterValue="0.000199989997781813144683837890625"/>
            <parameter index="10" name="EQ 频段 2 增益" parameterValue="0.5"/>
            <parameter index="11" name="EQ 频段 2 启用" parameterValue="1"/>
            <parameter index="12" name="EQ 频段 3 中置频率" parameterValue="0.0325271077454090118408203125"/>
            <parameter index="13" name="EQ 频段 3 Q" parameterValue="0.000199989997781813144683837890625"/>
            <parameter index="14" name="EQ 频段 3 增益" parameterValue="0.5"/>
            <parameter index="15" name="EQ 频段 3 启用" parameterValue="1"/>
            <parameter index="16" name="EQ 频段 4 中置频率" parameterValue="0.13261051476001739501953125"/>
            <parameter index="17" name="EQ 频段 4 Q" parameterValue="0.000199989997781813144683837890625"/>
            <parameter index="18" name="EQ 频段 4 增益" parameterValue="0.5"/>
            <parameter index="19" name="EQ 频段 4 启用" parameterValue="1"/>
            <parameter index="20" name="EQ 频段 5 中置频率" parameterValue="0.532944142818450927734375"/>
            <parameter index="21" name="EQ 频段 5 Q" parameterValue="0.000199989997781813144683837890625"/>
            <parameter index="22" name="EQ 频段 5 增益" parameterValue="0.5"/>
            <parameter index="23" name="EQ 频段 5 启用" parameterValue="1"/>
            <parameter index="24" name="增益" parameterValue="0.666666686534881591796875"/>
            <parameter index="25" name="恒定 Q" parameterValue="1"/>
            <parameter index="26" name="下限滤镜顺序" parameterValue="0"/>
            <parameter index="27" name="上限频率滤镜顺序" parameterValue="0"/>
            <parameter index="28" name="超静音模式" parameterValue="0"/>
            <parameter index="29" name="下限启用" parameterValue="1"/>
            <parameter index="30" name="上限频率启用" parameterValue="1"/>
            <parameter index="31" name="原始采样率" parameterValue="0.25"/>
            <parameter index="32" name="EQ 频段 1 频带宽" parameterValue="0.002499990165233612060546875"/>
            <parameter index="33" name="EQ 频段 2 频段宽度" parameterValue="0.0099999904632568359375"/>
            <parameter index="34" name="EQ 频段 3 频段宽度" parameterValue="0.0399999916553497314453125"/>
            <parameter index="35" name="EQ 频段 4 频段宽度" parameterValue="0.15999998152256011962890625"/>
            <parameter index="36" name="EQ 频段 5 频段宽度" parameterValue="0.63999998569488525390625"/>
            <parameter index="37" name="高通滤波启用" parameterValue="0"/>
            <parameter index="38" name="高通切除频率" parameterValue="0"/>
            <parameter index="39" name="高通斜率" parameterValue="0.4000000059604644775390625"/>
            <parameter index="40" name="低通滤波启用" parameterValue="0"/>
            <parameter index="41" name="低通切除频率" parameterValue="0.833194315433502197265625"/>
            <parameter index="42" name="低通斜率" parameterValue="0.4000000059604644775390625"/>
            <parameter index="43" name="不使用" parameterValue="0"/>
            <parameter index="44" name="下限图示范围" parameterValue="1"/>
          </component>
        </trackAudioParameters>
        <editParameter parameterIndex="0" slotIndex="4294967280"/>
      </masterTrack>
    </tracks>
    <sessionState ctiPosition="1643118" smpteStart="0">
      <selectionState selectionDuration="0" selectionStart="1643118"/>
      <viewState horizontalViewDuration="714787" horizontalViewStart="1330657" trackControlsWidth="224" verticalScrollOffset="0"/>
      <timeFormatState beatsPerBar="4" beatsPerMinute="120" customFrameRate="12" linkToDefaultTimeSettings="true" noteLength="4" subdivisions="16" timeCodeDropFrame="false" timeCodeFrameRate="30" timeCodeNTSC="false" timeFormat="timeFormatDecimal"/>
      <mixingOptionState defaultPanModeLogarithmic="false" panPower="-3" playOverlappingClips="false"/>
    </sessionState>
    <xmpMetadata><![CDATA[<?xpacket begin="﻿" id="W5M0MpCehiHzreSzNTczkc9d"?>
<x:xmpmeta xmlns:x="adobe:ns:meta/" x:xmptk="Adobe XMP Core 7.1-c000 79.b0f8be9, 2021/12/08-19:11:22        ">
   <rdf:RDF xmlns:rdf="http://www.w3.org/1999/02/22-rdf-syntax-ns#">
      <rdf:Description rdf:about=""
            xmlns:xmp="http://ns.adobe.com/xap/1.0/"
            xmlns:xmpMM="http://ns.adobe.com/xap/1.0/mm/"
            xmlns:stEvt="http://ns.adobe.com/xap/1.0/sType/ResourceEvent#"
            xmlns:stRef="http://ns.adobe.com/xap/1.0/sType/ResourceRef#"
            xmlns:dc="http://purl.org/dc/elements/1.1/"
            xmlns:xmpDM="http://ns.adobe.com/xmp/1.0/DynamicMedia/">
         <xmp:CreatorTool>Adobe Audition 24.0 (Windows)</xmp:CreatorTool>
         <xmp:CreateDate>2025-08-12T01:02:21+08:00</xmp:CreateDate>
         <xmp:MetadataDate>2025-08-12T20:51:55+08:00</xmp:MetadataDate>
         <xmp:ModifyDate>2025-08-12T20:51:55+08:00</xmp:ModifyDate>
         <xmpMM:InstanceID>xmp.iid:1bf4a228-c178-cb41-adfd-d8c00e95b7bb</xmpMM:InstanceID>
         <xmpMM:DocumentID>xmp.did:1bf4a228-c178-cb41-adfd-d8c00e95b7bb</xmpMM:DocumentID>
         <xmpMM:OriginalDocumentID>xmp.did:90768dc7-4c94-1f41-a1f8-e651f587c2a7</xmpMM:OriginalDocumentID>
         <xmpMM:History>
            <rdf:Seq>
               <rdf:li rdf:parseType="Resource">
                  <stEvt:action>saved</stEvt:action>
                  <stEvt:instanceID>xmp.iid:90768dc7-4c94-1f41-a1f8-e651f587c2a7</stEvt:instanceID>
                  <stEvt:when>2025-08-12T01:02:21+08:00</stEvt:when>
                  <stEvt:softwareAgent>Adobe Audition 24.0 (Windows)</stEvt:softwareAgent>
                  <stEvt:changed>/metadata</stEvt:changed>
               </rdf:li>
               <rdf:li rdf:parseType="Resource">
                  <stEvt:action>saved</stEvt:action>
                  <stEvt:instanceID>xmp.iid:6f5baf0d-58fd-2f44-86af-33ca111d44e6</stEvt:instanceID>
                  <stEvt:when>2025-08-12T01:37:18+08:00</stEvt:when>
                  <stEvt:softwareAgent>Adobe Audition 24.0 (Windows)</stEvt:softwareAgent>
                  <stEvt:changed>/metadata</stEvt:changed>
               </rdf:li>
               <rdf:li rdf:parseType="Resource">
                  <stEvt:action>saved</stEvt:action>
                  <stEvt:instanceID>xmp.iid:a9b57108-3804-9140-b4ea-b8b635274214</stEvt:instanceID>
                  <stEvt:when>2025-08-12T01:37:18+08:00</stEvt:when>
                  <stEvt:softwareAgent>Adobe Audition 24.0 (Windows)</stEvt:softwareAgent>
                  <stEvt:changed>/</stEvt:changed>
               </rdf:li>
               <rdf:li rdf:parseType="Resource">
                  <stEvt:action>saved</stEvt:action>
                  <stEvt:instanceID>xmp.iid:5b722755-e6bd-fc42-868d-5f16df56b174</stEvt:instanceID>
                  <stEvt:when>2025-08-12T20:51:55+08:00</stEvt:when>
                  <stEvt:softwareAgent>Adobe Audition 24.0 (Windows)</stEvt:softwareAgent>
                  <stEvt:changed>/metadata</stEvt:changed>
               </rdf:li>
               <rdf:li rdf:parseType="Resource">
                  <stEvt:action>saved</stEvt:action>
                  <stEvt:instanceID>xmp.iid:1bf4a228-c178-cb41-adfd-d8c00e95b7bb</stEvt:instanceID>
                  <stEvt:when>2025-08-12T20:51:55+08:00</stEvt:when>
                  <stEvt:softwareAgent>Adobe Audition 24.0 (Windows)</stEvt:softwareAgent>
                  <stEvt:changed>/</stEvt:changed>
               </rdf:li>
            </rdf:Seq>
         </xmpMM:History>
         <xmpMM:DerivedFrom rdf:parseType="Resource">
            <stRef:instanceID>xmp.iid:5b722755-e6bd-fc42-868d-5f16df56b174</stRef:instanceID>
            <stRef:documentID>xmp.did:a9b57108-3804-9140-b4ea-b8b635274214</stRef:documentID>
            <stRef:originalDocumentID>xmp.did:90768dc7-4c94-1f41-a1f8-e651f587c2a7</stRef:originalDocumentID>
         </xmpMM:DerivedFrom>
         <dc:format>application/xml</dc:format>
         <xmpDM:Tracks>
            <rdf:Bag>
               <rdf:li rdf:parseType="Resource">
                  <xmpDM:trackName>CuePoint Markers</xmpDM:trackName>
                  <xmpDM:trackType>Cue</xmpDM:trackType>
                  <xmpDM:frameRate>f48000</xmpDM:frameRate>
               </rdf:li>
               <rdf:li rdf:parseType="Resource">
                  <xmpDM:trackName>CD Track Markers</xmpDM:trackName>
                  <xmpDM:trackType>Track</xmpDM:trackType>
                  <xmpDM:frameRate>f48000</xmpDM:frameRate>
               </rdf:li>
               <rdf:li rdf:parseType="Resource">
                  <xmpDM:trackName>Subclip Markers</xmpDM:trackName>
                  <xmpDM:trackType>InOut</xmpDM:trackType>
                  <xmpDM:frameRate>f48000</xmpDM:frameRate>
               </rdf:li>
            </rdf:Bag>
         </xmpDM:Tracks>
      </rdf:Description>
   </rdf:RDF>
</x:xmpmeta>
                                                                                                    
                                                                                                    
                                                                                                    
                                                                                                    
                                                                                                    
                                                                                                    
                                                                                                    
                                                                                                    
                                                                                                    
                                                                                                    
                                                                                                    
                                                                                                    
                                                                                                    
                                                                                                    
                                                                                                    
                                                                                                    
                                                                                                    
                                                                                                    
                                                                                                    
                                                                                                    
                           
<?xpacket end="w"?>]]></xmpMetadata>
    <clipGroups/>
    <metronome enabled="false" pattern="downBeat subdivision subdivision subdivision " soundSet="sticks">
      <metronomeTrack automationLaneOpenState="false" id="40000" index="0" select="false" visible="false">
        <trackParameters trackHeight="77" trackHue="-1" trackMinimized="false">
          <name>节拍器</name>
        </trackParameters>
        <trackAudioParameters audioChannelType="mono" automationMode="1" monitoring="false" recordArmed="false" solo="false" soloSafe="true">
          <trackOutput outputID="10000" type="trackID"/>
          <trackInput inputID="-1"/>
          <component componentGuid="e750f2a5-c487-4194-9fdc-f4626a809f50" componentID="Audition.Fader" id="trackFader" name="volume" powered="true">
            <parameter index="0" name="volume" parameterValue="0.50118720531463623046875"/>
            <parameter index="1" name="static gain" parameterValue="1"/>
          </component>
          <component componentGuid="99ebc0f1-e02c-46a0-bf87-059d2f5b248b" componentID="Audition.Mute" id="trackMute" name="Mute" powered="true">
            <parameter index="0" parameterValue="0"/>
            <parameter index="1" name="mute" parameterValue="0"/>
          </component>
          <component componentGuid="9ecb0071-a468-4dd2-85fe-b4aded5e2a90" componentID="Audition.StereoPanner" id="trackPan" name="StereoPanner" powered="true">
            <parameter index="0" name="声像" parameterValue="0"/>
          </component>
          <component componentGuid="05b12bb4-4576-4fd6-9e29-a002f14f5c70" componentID="Audition.EQ" id="trackEQ" name="EQ" powered="false">
            <parameter index="0" name="下限频率" parameterValue="0.000834028352983295917510986328125"/>
            <parameter index="1" name="下限增益" parameterValue="0.5"/>
            <parameter index="2" name="上限频率" parameterValue="0.74979150295257568359375"/>
            <parameter index="3" name="上限频率增益" parameterValue="0.5"/>
            <parameter index="4" name="EQ 频段 1 中置频率" parameterValue="0.00125104258768260478973388671875"/>
            <parameter index="5" name="EQ 频段 1 Q" parameterValue="0.000199989997781813144683837890625"/>
            <parameter index="6" name="EQ 频段 1 增益" parameterValue="0.5"/>
            <parameter index="7" name="EQ 频段 1 启用" parameterValue="1"/>
            <parameter index="8" name="EQ 频段 2 中置频率" parameterValue="0.0075062550604343414306640625"/>
            <parameter index="9" name="EQ 频段 2 Q" parameterValue="0.000199989997781813144683837890625"/>
            <parameter index="10" name="EQ 频段 2 增益" parameterValue="0.5"/>
            <parameter index="11" name="EQ 频段 2 启用" parameterValue="1"/>
            <parameter index="12" name="EQ 频段 3 中置频率" parameterValue="0.0325271077454090118408203125"/>
            <parameter index="13" name="EQ 频段 3 Q" parameterValue="0.000199989997781813144683837890625"/>
            <parameter index="14" name="EQ 频段 3 增益" parameterValue="0.5"/>
            <parameter index="15" name="EQ 频段 3 启用" parameterValue="1"/>
            <parameter index="16" name="EQ 频段 4 中置频率" parameterValue="0.13261051476001739501953125"/>
            <parameter index="17" name="EQ 频段 4 Q" parameterValue="0.000199989997781813144683837890625"/>
            <parameter index="18" name="EQ 频段 4 增益" parameterValue="0.5"/>
            <parameter index="19" name="EQ 频段 4 启用" parameterValue="1"/>
            <parameter index="20" name="EQ 频段 5 中置频率" parameterValue="0.532944142818450927734375"/>
            <parameter index="21" name="EQ 频段 5 Q" parameterValue="0.000199989997781813144683837890625"/>
            <parameter index="22" name="EQ 频段 5 增益" parameterValue="0.5"/>
            <parameter index="23" name="EQ 频段 5 启用" parameterValue="1"/>
            <parameter index="24" name="增益" parameterValue="0.666666686534881591796875"/>
            <parameter index="25" name="恒定 Q" parameterValue="1"/>
            <parameter index="26" name="下限滤镜顺序" parameterValue="0"/>
            <parameter index="27" name="上限频率滤镜顺序" parameterValue="0"/>
            <parameter index="28" name="超静音模式" parameterValue="0"/>
            <parameter index="29" name="下限启用" parameterValue="1"/>
            <parameter index="30" name="上限频率启用" parameterValue="1"/>
            <parameter index="31" name="原始采样率" parameterValue="0.25"/>
            <parameter index="32" name="EQ 频段 1 频带宽" parameterValue="0.002499990165233612060546875"/>
            <parameter index="33" name="EQ 频段 2 频段宽度" parameterValue="0.0099999904632568359375"/>
            <parameter index="34" name="EQ 频段 3 频段宽度" parameterValue="0.0399999916553497314453125"/>
            <parameter index="35" name="EQ 频段 4 频段宽度" parameterValue="0.15999998152256011962890625"/>
            <parameter index="36" name="EQ 频段 5 频段宽度" parameterValue="0.63999998569488525390625"/>
            <parameter index="37" name="高通滤波启用" parameterValue="0"/>
            <parameter index="38" name="高通切除频率" parameterValue="0"/>
            <parameter index="39" name="高通斜率" parameterValue="0.4000000059604644775390625"/>
            <parameter index="40" name="低通滤波启用" parameterValue="0"/>
            <parameter index="41" name="低通切除频率" parameterValue="0.833194315433502197265625"/>
            <parameter index="42" name="低通斜率" parameterValue="0.4000000059604644775390625"/>
            <parameter index="43" name="不使用" parameterValue="0"/>
            <parameter index="44" name="下限图示范围" parameterValue="1"/>
          </component>
        </trackAudioParameters>
        <editParameter parameterIndex="0" slotIndex="4294967280"/>
      </metronomeTrack>
    </metronome>
    <properties>
      <property key="EssentialSoundConfigurations">[{"Guid":"a8b40e3e-13e7-4c1f-b382-96058f1f691d","Name":"$$$/app/Presets/DefaultPresetName=(Default)","PresetData":{"ModeID":"ambience","Models":{"model_ducking":{},"model_loudness":{"DefaultLoudness":{"type":"float","value":-30},"LoudnessStandard":{"type":"std::uint32_t","value":0},"MaxLoudness":{"type":"float","value":-12},"MinLoudness":{"type":"float","value":-42}},"model_soundeffects":{"ReverbPresets":{"type":"tree::any","value":{"$$$/app/Presets/EssentialSound/ReverbPreset/LargeRoomAmbience=Large Room Ambience":{"type":"array::float","value":[0.051507499068975449,0.32432401180267334,0.29292899370193481,0.30000001192092896,0.20000000298023224,0,0.14285700023174286,0.40000000596046448,0.5,0.69999998807907104,0.30000001192092896,0.25125628709793091,0.03125]},"$$$/app/Presets/EssentialSound/ReverbPreset/OutsideAmbience=Outside Ambience":{"type":"array::float","value":[0.091708503663539886,0.043893899768590927,1,0.5,0.20000000298023224,0.80000001192092896,0.18367299437522888,1,0.5,0,0.80000001192092896,0.25125628709793091,0.03125]},"$$$/app/Presets/EssentialSound/ReverbPreset/RoomAmbience=Room Ambience":{"type":"array::float","value":[0.057788901031017303,0.44944900274276733,0.49494898319244385,0.89999997615814209,0.10000000149011612,0.15000000596046448,0.081632703542709351,0.40000000596046448,0.5,0.80000001192092896,0.20000000298023224,0.25125628709793091,0.03125]},"$$$/app/Presets/EssentialSound/ReverbPreset/WindEffect=Wind Effect":{"type":"array::float","value":[0.19597999751567841,0.6896899938583374,0.69696998596191406,0.25,0.5,0.5,0.23469400405883789,0.51999998092651367,0.5,0.75,0.25,0.25125628709793091,0.03125]}}}},"model_stereowidth":{},"model_volume":{"MaxGain":{"type":"float","value":15},"MinGain":{"type":"float","value":-60}}},"Version":1},"Type":"1c19ca71-c24c-49cd-8dd5-2cc46018507a","Version":1},{"Guid":"58dc27a8-6a2a-480c-bd0c-4b45fff346a6","Name":"$$$/app/Presets/DefaultPresetName=(Default)","PresetData":{"ModeID":"dialog","Models":{"model_clarity":{"EQPresets":{"type":"tree::any","value":{"$$$/app/Presets/EssentialSound/EQPreset/BackgroundVoice=Background Voice":{"type":"array::float","value":[0.12099699676036835,0.5,0.39240506291389465,0,0.5,0.5,0.5,0.5,0.5,0.47827938199043274,0.45772689580917358,0.45778733491897583,0.47946760058403015,0.5,0]},"$$$/app/Presets/EssentialSound/EQPreset/Intercom=Intercom":{"type":"array::float","value":[0.19432899355888367,0.5,1,0,0.071499988436698914,0.071499988436698914,0.071499988436698914,0.40238627791404724,0.48571401834487915,0.5,0.55155748128890991,0.59602576494216919,0.22246670722961426,0.071499988436698914,0]},"$$$/app/Presets/EssentialSound/EQPreset/LockedInTheTrunk=Locked in the Trunk":{"type":"array::float","value":[0.12099699676036835,0.5,0.79746836423873901,0,0.5,0.5,0.5,0.5,0.5,0.32846158742904663,0.15721426904201508,0.15721426904201508,0.15721426904201508,0.15721426904201508,0]},"$$$/app/Presets/EssentialSound/EQPreset/OldRadio=Old Radio":{"type":"array::float","value":[0.12099699676036835,0.5,0.79746836423873901,0,0.15721426904201508,0.15721426904201508,0.15721426904201508,0.28442040085792542,0.48315632343292236,0.36498492956161499,0.52853888273239136,0.43511500954627991,0.27154684066772461,0.15721426904201508,0]},"$$$/app/Presets/EssentialSound/EQPreset/OnTheTelephone=On the Telephone":{"type":"array::float","value":[0.12099699676036835,0.5,0.39240506291389465,0,0.32864287495613098,0.32864287495613098,0.32864287495613098,0.32864287495613098,0.48571401834487915,0.53071397542953491,0.53071397542953491,0.48357096314430237,0.32864287495613098,0.32864287495613098,0]},"$$$/app/Presets/EssentialSound/EQPreset/OutsideOfTheRoom=Outside of the Room":{"type":"array::float","value":[0.12099699676036835,0.5,0.79746836423873901,0,0.42539370059967041,0.47865453362464905,0.5,0.5,0.48571401834487915,0.40073278546333313,0.25656309723854065,0.15721426904201508,0.15721426904201508,0.15721426904201508,0]},"$$$/app/Presets/EssentialSound/EQPreset/PodcastVoice=Podcast Voice":{"type":"array::float","value":[0.12099699676036835,0.5,0.39240506291389465,0,0.5,0.5,0.5,0.51789408922195435,0.50770342350006104,0.5,0.51789408922195435,0.528114914894104,0.5102812647819519,0.5,0]},"$$$/app/Presets/EssentialSound/EQPreset/SubtleBoostHighTone=Subtle Boost (High Tone)":{"type":"array::float","value":[0.096553400158882141,0.5,0.29113924503326416,0,0.5,0.5,0.5,0.5,0.5,0.51933407783508301,0.54642897844314575,0.52706766128540039,0.5,0.5,0]},"$$$/app/Presets/EssentialSound/EQPreset/SubtleBoostLowTone=Subtle Boost (Low Tone)":{"type":"array::float","value":[0.096553400158882141,0.5,0.29113924503326416,0,0.5,0.5,0.5,0.5,0.5,0.5135338306427002,0.54642897844314575,0.51933407783508301,0.5,0.5,0]},"$$$/app/Presets/EssentialSound/EQPreset/ThatPublicRadioSound=That Public Radio Sound":{"type":"array::float","value":[0.12099699676036835,0.5,0.79746836423873901,0,0.15721426904201508,0.15721426904201508,0.15721426904201508,0.36334344744682312,0.49468311667442322,0.5,0.5,0.5,0.5,0.5,0]},"$$$/app/Presets/EssentialSound/EQPreset/VocalPresence=Vocal Presence":{"type":"array::float","value":[0.096553400158882141,0.5,0.32489451766014099,0,0.3572143018245697,0.3572143018245697,0.46428570151329041,0.47857141494750977,0.4763694703578949,0.49570354819297791,0.55924957990646362,0.56523394584655762,0.50859290361404419,0.46992480754852295,0]}}}},"model_enhancespeech":{},"model_loudness":{"DefaultLoudness":{"type":"float","value":-23},"LoudnessStandard":{"type":"std::uint32_t","value":0},"MaxLoudness":{"type":"float","value":-12},"MinLoudness":{"type":"float","value":-42}},"model_restoration":{"ReduceNoiseMaxSetting":{"type":"array::float","value":[1,0,0,0,0]},"ReduceNoiseMinSetting":{"type":"array::float","value":[0,0,0,0,0]},"ReduceReverbMaxSetting":{"type":"array::float","value":[1,0,1,0,0]},"ReduceReverbMinSetting":{"type":"array::float","value":[0,0,1,0,0]},"ReduceRumbleMaxSetting":{"type":"array::float","value":[1,0.061583578586578369,0.375,0,0,0.00083333335351198912,1,0,1,0.0390625,0.00083408987848088145,0,0.0041666668839752674,0.00022554649331141263,0.0046875001862645149,0.75,0.0052083334885537624,0.75,1,0.75,0.0040520834736526012,0.75,0.0042629167437553406,0.00022554649331141263,0.0064883334562182426,0.00022554649331141263,0.006866666954010725,0.75,0.0071704164147377014,0.00022554649331141263,0.01041458360850811,0.00022554649331141263,0.010900000110268593,0.75,0.011407917365431786,0.00022554649331141263,0.015606249682605267,0.00022554649331141263,0.016333334147930145,0.75,0.017094582319259644,0.00022554649331141263,0.026243748143315315,0.00022554649331141263,0.0274666678160429,0.75,0.028746666386723518,0.00022554649331141263,0.041658751666545868,0.00022554649331141263,0.043600000441074371,0.75,0.045631669461727142,0.00022554649331141263,0.062424581497907639,0.00022554649331141263,0.065333336591720581,0.75,0.068377502262592316,0.00022554649331141263,0.10497540980577469,0.00022554649331141263,0.1098666712641716,0.75,0.11498583108186722,0.00022554649331141263,0.16663584113121033,0.00022554649331141263,0.17440000176429749,0.75,0.18252624571323395,0.00022554649331141263,0.91874998807907104,0.00022554649331141263,1,0.00022554649331141263,0,0,0,0,0,0,0,0,0,0,0,0,0,0,0,0,0,0,0,0,0,0,0,0,0,0,0,0,0,0,0,0,0,0,0,0,0,0,0,0,0,0,0,0,0,0,0,0,0,0,0,0,0,0,0,0,0,0,0,0,0,0,0,0,0,0,0,0,0,0,0,0,0,0,0,0,0,0,0,0,0,0,0,0,0,0,0,0,0,0,0,0,0,0,0,0,0,0,0,0,0,0,0,0,0,0,0,0,0,0,0,0,0,0,0,0,0,0,0,0,0,0,0,0,0,0,0,0,0,0,0,0,0,0,0,0,0,0,0,0,0,0,0,0,0,0,0,0,0,0,0,0,0,0,0,0,0,0,0,0,0,0,0,0,0,0,0,0,0,0,0,0,0,0,0,0,0,0,0,0,0,0,0,0,0,0,0,0,0,0]},"ReduceRumbleMinSetting":{"type":"array::float","value":[1,0.061583578586578369,0.375,0,0,0.00083333335351198912,1,0,1,0.0390625,0.00083408987848088145,0.75,0.0041666668839752674,0.75,0.0046875001862645149,0.75,0.0052083334885537624,0.75,1,0.75,0.91874998807907104,0.61237245798110962,1,0.61237245798110962,0,0,0,0,0,0,0,0,0,0,0,0,0,0,0,0,0,0,0,0,0,0,0,0,0,0,0,0,0,0,0,0,0,0,0,0,0,0,0,0,0,0,0,0,0,0,0,0,0,0,0,0,0,0,0,0,0,0,0,0,0,0,0,0,0,0,0,0,0,0,0,0,0,0,0,0,0,0,0,0,0,0,0,0,0,0,0,0,0,0,0,0,0,0,0,0,0,0,0,0,0,0,0,0,0,0,0,0,0,0,0,0,0,0,0,0,0,0,0,0,0,0,0,0,0,0,0,0,0,0,0,0,0,0,0,0,0,0,0,0,0,0,0,0,0,0,0,0,0,0,0,0,0,0,0,0,0,0,0,0,0,0,0,0,0,0,0,0,0,0,0,0,0,0,0,0,0,0,0,0,0,0,0,0,0,0,0,0,0,0,0,0,0,0,0,0,0,0,0,0,0,0,0,0,0,0,0,0,0,0,0,0,0,0,0,0,0,0,0,0,0,0,0,0,0,0,0,0,0,0,0,0,0,0,0,0,0,0,0,0,0,0]},"ReduceSibilanceMaxSetting":{"type":"array::float","value":[0.5,0.19983997941017151,0.18367347121238708,0.26086956262588501,0.52702701091766357,0,1,0,0,0,0,0.75,1,1,0.40000000596046448]},"ReduceSibilanceMinSetting":{"type":"array::float","value":[0.875,0.19983997941017151,0.18367347121238708,0.19130434095859528,0.25675675272941589,0,1,0,0,0,0,0.75,1,1,0.40000000596046448]}},"model_soundeffects":{"ReverbPresets":{"type":"tree::any","value":{"$$$/app/Presets/EssentialSound/ReverbPreset/Auditorium=Auditorium":{"type":"array::float","value":[0.013047545216977596,0.15895412862300873,1,0.89999997615814209,0,0.52007436752319336,0.41663265228271484,0.46000000834465027,0.5,0.73000001907348633,0.15999999642372131,0.75376886129379272,0.03125]},"$$$/app/Presets/EssentialSound/ReverbPreset/Church=Church":{"type":"array::float","value":[0.032663315534591675,0.39939939975738525,0.79797977209091187,0.25,0.5,0.5,0.2297959178686142,0.72000002861022949,0.5,0.62999999523162842,0.87999999523162842,0.25125628709793091,0.03125]},"$$$/app/Presets/EssentialSound/ReverbPreset/LargeReflectiveRoom=Large Reflective Room":{"type":"array::float","value":[0.0074449013918638229,0.098988421261310577,0.79890537261962891,0.89999997615814209,0.10000000149011612,0.40110713243484497,0.060284845530986786,0.27522978186607361,0.5,0.73000001907348633,0.31999999284744263,0.25125628709793091,0.03125]},"$$$/app/Presets/EssentialSound/ReverbPreset/OutsideTheClub=Outside the Club":{"type":"array::float","value":[0.020615793764591217,0.050136558711528778,0.69696998596191406,0.25,0.094355784356594086,0.22242647409439087,0.1071428582072258,0.2800000011920929,0.5,0.73000001907348633,0.46000000834465027,0.25125628709793091,0.03125]},"$$$/app/Presets/EssentialSound/ReverbPreset/SmallDryRoom=Small Dry Room":{"type":"array::float","value":[0.24623115360736847,0.69975000619888306,0.29292899370193481,0.40000000596046448,0.20000000298023224,0.40000000596046448,0.039285715669393539,0.10000000149011612,0.5,1,0.5,0.75376886129379272,0.03125]},"$$$/app/Presets/EssentialSound/ReverbPreset/ThickenVoice=Thicken Voice":{"type":"array::float","value":[0.19597999751567841,0.23931467533111572,0.69696998596191406,0.25,0.5,0.53999996185302734,0.020408162847161293,0.20945435762405396,0.5,1,0.34999999403953552,0.25125628709793091,0.03125]},"$$$/app/Presets/EssentialSound/ReverbPreset/WarmRoom=Warm Room":{"type":"array::float","value":[0.020100502297282219,0.074074074625968933,0.49494948983192444,0.40000000596046448,0.74960309267044067,0.40000000596046448,0.1239795908331871,0.67000001668930054,0.5,0.85000002384185791,0.56000000238418579,0.25125628709793091,0.03125]},"$$$/app/Presets/EssentialSound/ReverbPreset/WarmVoice=Warm Voice":{"type":"array::float","value":[0.19597989320755005,0.89989989995956421,0,0.40000000596046448,0.20000000298023224,0.40000000596046448,0.10204081982374191,0.090000003576278687,0.5,1,0.30000001192092896,0.25125628709793091,0.03125]}}}},"model_volume":{"MaxGain":{"type":"float","value":15},"MinGain":{"type":"float","value":-60}}},"Version":2},"Type":"1c19ca71-c24c-49cd-8dd5-2cc46018507a","Version":1},{"Guid":"353811fa-4179-435e-8e5e-23028ba15a7a","Name":"$$$/app/Presets/DefaultPresetName=(Default)","PresetData":{"ModeID":"generic","Models":{"model_loudness":{"DefaultLoudness":{"type":"float","value":-24},"LoudnessStandard":{"type":"std::uint32_t","value":0},"MaxLoudness":{"type":"float","value":-12},"MinLoudness":{"type":"float","value":-42}},"model_volume":{"MaxGain":{"type":"float","value":15},"MinGain":{"type":"float","value":-60}}},"Version":1},"Type":"1c19ca71-c24c-49cd-8dd5-2cc46018507a","Version":1},{"Guid":"31ba96a6-5d3e-4d89-b1e1-1dbe3c055d0c","Name":"$$$/app/Presets/DefaultPresetName=(Default)","PresetData":{"ModeID":"music","Models":{"model_ducking":{},"model_duration":{},"model_loudness":{"DefaultLoudness":{"type":"float","value":-25},"LoudnessStandard":{"type":"std::uint32_t","value":0},"MaxLoudness":{"type":"float","value":-12},"MinLoudness":{"type":"float","value":-42}},"model_volume":{"MaxGain":{"type":"float","value":15},"MinGain":{"type":"float","value":-60}}},"Version":1},"Type":"1c19ca71-c24c-49cd-8dd5-2cc46018507a","Version":1},{"Guid":"cea63332-1adc-44a9-a6eb-5490f965859b","Name":"$$$/app/Presets/DefaultPresetName=(Default)","PresetData":{"ModeID":"sfx","Models":{"model_loudness":{"DefaultLoudness":{"type":"float","value":-21},"LoudnessStandard":{"type":"std::uint32_t","value":0},"MaxLoudness":{"type":"float","value":-12},"MinLoudness":{"type":"float","value":-42}},"model_pan":{},"model_soundeffects":{"ReverbPresets":{"type":"tree::any","value":{"$$$/app/Presets/EssentialSound/ReverbPreset/HeavyReverb=Heavy Reverb":{"type":"array::float","value":[0.13316600024700165,0.29929900169372559,1,0.95999997854232788,0.85000002384185791,0.5,0.51530599594116211,0.30000001192092896,0.5,0.5,0.5,0.25125628709793091,0.0625]},"$$$/app/Presets/EssentialSound/ReverbPreset/LightReverb=Light Reverb":{"type":"array::float","value":[0.095477402210235596,0.29929900169372559,0.090909101068973541,1,1,0.80000001192092896,0.22449000179767609,0.60000002384185791,0.5,0.69999998807907104,0.30000001192092896,0.25125628709793091,0.0625]},"$$$/app/Presets/EssentialSound/ReverbPreset/OutsideReverb=Outside Reverb":{"type":"array::float","value":[0.091708503663539886,0.043893899768590927,1,0.5,0.20000000298023224,0.80000001192092896,0.18367299437522888,1,0.5,0,0.80000001192092896,0.25125628709793091,0.0625]},"$$$/app/Presets/EssentialSound/ReverbPreset/RoomReverb=Room Reverb":{"type":"array::float","value":[0.057788901031017303,0.44944900274276733,0.49494898319244385,0.89999997615814209,0.10000000149011612,0.15000000596046448,0.081632703542709351,0.40000000596046448,0.5,0.80000001192092896,0.20000000298023224,0.25125628709793091,0.0625]}}}},"model_volume":{"MaxGain":{"type":"float","value":15},"MinGain":{"type":"float","value":-60}}},"Version":1},"Type":"1c19ca71-c24c-49cd-8dd5-2cc46018507a","Version":1}]</property>
    </properties>
  </session>

  <files>
    <file absolutePath="C:\Users\27333\Desktop\已导入文件\tmpd_dse66b 48000 2.wav" id="0" importerPrivateSettings="Compression:0:0;LargeFileSupport:0:0;SampleType:0:40;" mediaHandler="AmioWav" recoveryID="8ef9ec2b-aca7-4104-95f5-a3538ed7f8fa" relativePath="../已导入文件/tmpd_dse66b 48000 2.wav"/>
    <file absolutePath="C:\Users\27333\Desktop\已导入文件\64347069 48000 2.wav" id="1" importerPrivateSettings="Compression:0:0;LargeFileSupport:0:0;SampleType:0:1;" mediaHandler="AmioWav" recoveryID="3be8432e-b0df-41b2-9feb-f89ac8258139" relativePath="../已导入文件/64347069 48000 2.wav"/>
    <file absolutePath="C:\Users\27333\Desktop\已导入文件\tmpae2c2lf7 48000 2.wav" id="2" importerPrivateSettings="Compression:0:0;LargeFileSupport:0:0;SampleType:0:40;" mediaHandler="AmioWav" recoveryID="18676dfc-ce4f-4b1c-a725-35ea970f0104" relativePath="../已导入文件/tmpae2c2lf7 48000 2.wav"/>
    <file absolutePath="C:\Users\27333\Desktop\已导入文件\tmp0t49vwmw 48000 2.wav" id="3" importerPrivateSettings="Compression:0:0;LargeFileSupport:0:0;SampleType:0:40;" mediaHandler="AmioWav" recoveryID="e2b6fb21-931c-4284-9d8f-93d305b1b817" relativePath="../已导入文件/tmp0t49vwmw 48000 2.wav"/>
    <file absolutePath="C:\Users\27333\Desktop\已导入文件\64347069_vocals_reverb 48000 2.wav" id="4" importerPrivateSettings="Compression:0:0;LargeFileSupport:0:0;SampleType:0:1;" mediaHandler="AmioWav" recoveryID="c99e2e85-65c7-43cf-94b4-a0bd6cb397ac" relativePath="../已导入文件/64347069_vocals_reverb 48000 2.wav"/>
  </files>

  <audioDevice inputID="22222222-2222-2222-2222-22222222" outputID="11111111-1111-1111-1111-11111111">
    <inputPort id="1" name="默认立体声输入"/>
    <inputPort id="2" name="[01M] 系统默认 - 麦克风 (USB Audio Device) 1"/>
    <inputPort id="3" name="[02M] 系统默认 - 麦克风 (USB Audio Device) 2"/>
    <inputPort id="4" name="[01S] 系统默认 - 麦克风 (USB Audio Device) 1"/>
    <outputPort id="1" name="默认输出"/>
    <outputPort id="2" name="[01M] 系统默认 - 扬声器 (USB Audio Device) 1"/>
    <outputPort id="3" name="[02M] 系统默认 - 扬声器 (USB Audio Device) 2"/>
    <outputPort id="4" name="默认立体声输出"/>
    <outputPort id="5" name="[01S] 系统默认 - 扬声器 (USB Audio Device) 1"/>
    <outputPort id="6" name="默认环绕声输出"/>
  </audioDevice>

</sesx>
